<?xml version="1.0" encoding="utf-8"?>
<!-- Generator: Adobe Illustrator 15.0.0, SVG Export Plug-In . SVG Version: 6.00 Build 0)  -->
<!DOCTYPE svg PUBLIC "-//W3C//DTD SVG 1.1//EN" "http://www.w3.org/Graphics/SVG/1.1/DTD/svg11.dtd">
<svg version="1.1" id="Layer_1" xmlns="http://www.w3.org/2000/svg" xmlns:xlink="http://www.w3.org/1999/xlink" x="0px" y="0px"
	 width="504px" height="648px" viewBox="0 0 504 648" enable-background="new 0 0 504 648" xml:space="preserve">
<pattern  width="57.6" height="57.601" patternUnits="userSpaceOnUse" id="Capsules" viewBox="0 0 57.6 57.601" overflow="visible">
	<g transform="translate(-16,61.501)">
		<polygon fill="none" points="16,-3.9 16,-61.501 73.6,-61.501 73.6,-3.9 		"/>
		<line fill="#FFFFFF" x1="0" y1="-9.9" x2="6" y2="-3.9"/>
		<line fill="#FFFFFF" x1="0" y1="-3.9" x2="6" y2="-9.9"/>
		<line fill="none" stroke="#000000" stroke-width="1.6" stroke-linecap="round" x1="41.8" y1="-29.7" x2="39.586" y2="-26.043"/>
		
			<line fill="none" stroke="#000000" stroke-width="1.6" stroke-linecap="round" x1="39.234" y1="-36.593" x2="40.99" y2="-33.371"/>
		
			<line fill="none" stroke="#000000" stroke-width="1.6" stroke-linecap="round" x1="37.746" y1="-34.149" x2="37.969" y2="-29.333"/>
		
			<line fill="none" stroke="#000000" stroke-width="1.6" stroke-linecap="round" x1="46.776" y1="-17.386" x2="47.581" y2="-13.187"/>
		
			<line fill="none" stroke="#000000" stroke-width="1.6" stroke-linecap="round" x1="33.499" y1="-22.808" x2="32.708" y2="-18.606"/>
		
			<line fill="none" stroke="#000000" stroke-width="1.6" stroke-linecap="round" x1="25.865" y1="-22.345" x2="29.169" y2="-19.633"/>
		
			<line fill="none" stroke="#000000" stroke-width="1.6" stroke-linecap="round" x1="14.606" y1="-24.975" x2="17.909" y2="-22.263"/>
		<line fill="none" stroke="#000000" stroke-width="1.6" stroke-linecap="round" x1="33.495" y1="-28.062" x2="36.8" y2="-25.351"/>
		
			<line fill="none" stroke="#000000" stroke-width="1.6" stroke-linecap="round" x1="37.675" y1="-18.112" x2="36.201" y2="-22.126"/>
		
			<line fill="none" stroke="#000000" stroke-width="1.6" stroke-linecap="round" x1="25.448" y1="-19.493" x2="21.246" y2="-15.899"/>
		<line fill="none" stroke="#000000" stroke-width="1.6" stroke-linecap="round" x1="31.12" y1="-30.202" x2="35.23" y2="-31.382"/>
		
			<line fill="none" stroke="#000000" stroke-width="1.6" stroke-linecap="round" x1="39.792" y1="-10.599" x2="43.23" y2="-13.141"/>
		
			<line fill="none" stroke="#000000" stroke-width="1.6" stroke-linecap="round" x1="31.107" y1="-8.732" x2="33.316" y2="-12.392"/>
		
			<line fill="none" stroke="#000000" stroke-width="1.6" stroke-linecap="round" x1="49.748" y1="-27.354" x2="51.43" y2="-23.423"/>
		<line fill="none" stroke="#000000" stroke-width="1.6" stroke-linecap="round" x1="57.746" y1="-36.649" x2="57.2" y2="-30.9"/>
		
			<line fill="none" stroke="#000000" stroke-width="1.6" stroke-linecap="round" x1="46.57" y1="-22.604" x2="44.444" y2="-18.895"/>
		
			<line fill="none" stroke="#000000" stroke-width="1.6" stroke-linecap="round" x1="55.668" y1="-22.77" x2="52.364" y2="-20.058"/>
		<line fill="none" stroke="#000000" stroke-width="1.6" stroke-linecap="round" x1="54.591" y1="-9.451" x2="57.91" y2="-6.759"/>
		<line fill="none" stroke="#000000" stroke-width="1.6" stroke-linecap="round" x1="52.911" y1="-29.031" x2="56.2" y2="-26.301"/>
		
			<line fill="none" stroke="#000000" stroke-width="1.6" stroke-linecap="round" x1="46.081" y1="-26.914" x2="47.575" y2="-30.92"/>
		
			<line fill="none" stroke="#000000" stroke-width="1.6" stroke-linecap="round" x1="50.281" y1="-31.034" x2="53.918" y2="-33.281"/>
		
			<line fill="none" stroke="#000000" stroke-width="1.6" stroke-linecap="round" x1="26.017" y1="-13.576" x2="28.498" y2="-17.058"/>
		
			<line fill="none" stroke="#000000" stroke-width="1.6" stroke-linecap="round" x1="57.001" y1="-41.116" x2="54.61" y2="-37.573"/>
		
			<line fill="none" stroke="#000000" stroke-width="1.6" stroke-linecap="round" x1="29.996" y1="-23.649" x2="28.276" y2="-28.865"/>
		
			<line fill="none" stroke="#000000" stroke-width="1.6" stroke-linecap="round" x1="29.161" y1="-44.354" x2="31.927" y2="-47.614"/>
		
			<line fill="none" stroke="#000000" stroke-width="1.6" stroke-linecap="round" x1="50.69" y1="-39.638" x2="50.246" y2="-34.149"/>
		
			<line fill="none" stroke="#000000" stroke-width="1.6" stroke-linecap="round" x1="37.496" y1="-38.149" x2="39.415" y2="-42.76"/>
		
			<line fill="none" stroke="#000000" stroke-width="1.6" stroke-linecap="round" x1="41.719" y1="-19.444" x2="40.299" y2="-15.413"/>
		
			<line fill="none" stroke="#000000" stroke-width="1.6" stroke-linecap="round" x1="47.691" y1="-19.861" x2="50.996" y2="-17.149"/>
		
			<line fill="none" stroke="#000000" stroke-width="1.6" stroke-linecap="round" x1="32.342" y1="-39.568" x2="34.996" y2="-34.899"/>
		<line fill="none" stroke="#000000" stroke-width="1.6" stroke-linecap="round" x1="41.131" y1="-6.384" x2="44.768" y2="-8.632"/>
		
			<line fill="none" stroke="#000000" stroke-width="1.6" stroke-linecap="round" x1="30.979" y1="-32.583" x2="26.849" y2="-33.688"/>
		
			<line fill="none" stroke="#000000" stroke-width="1.6" stroke-linecap="round" x1="30.373" y1="-41.18" x2="28.746" y2="-38.149"/>
		<line fill="none" stroke="#000000" stroke-width="1.6" stroke-linecap="round" x1="61.746" y1="-55.649" x2="62" y2="-50.501"/>
		
			<line fill="none" stroke="#000000" stroke-width="1.6" stroke-linecap="round" x1="46.465" y1="-58.146" x2="49.769" y2="-55.433"/>
		
			<line fill="none" stroke="#000000" stroke-width="1.6" stroke-linecap="round" x1="41.246" y1="-56.149" x2="36.959" y2="-53.163"/>
		
			<line fill="none" stroke="#000000" stroke-width="1.6" stroke-linecap="round" x1="29.755" y1="-59.226" x2="33.496" y2="-56.649"/>
		<line fill="none" stroke="#000000" stroke-width="1.6" stroke-linecap="round" x1="43.85" y1="-44.996" x2="46" y2="-41.301"/>
		
			<line fill="none" stroke="#000000" stroke-width="1.6" stroke-linecap="round" x1="45.996" y1="-52.399" x2="45.452" y2="-49.019"/>
		
			<line fill="none" stroke="#000000" stroke-width="1.6" stroke-linecap="round" x1="49.313" y1="-52.854" x2="53.23" y2="-51.141"/>
		
			<line fill="none" stroke="#000000" stroke-width="1.6" stroke-linecap="round" x1="41.507" y1="-51.732" x2="43.716" y2="-55.393"/>
		
			<line fill="none" stroke="#000000" stroke-width="1.6" stroke-linecap="round" x1="64.246" y1="-40.399" x2="60.41" y2="-37.013"/>
		<line fill="none" stroke="#000000" stroke-width="1.6" stroke-linecap="round" x1="33.746" y1="-41.899" x2="35.655" y2="-46.8"/>
		
			<line fill="none" stroke="#000000" stroke-width="1.6" stroke-linecap="round" x1="32.668" y1="-52.922" x2="35.705" y2="-49.913"/>
		
			<line fill="none" stroke="#000000" stroke-width="1.6" stroke-linecap="round" x1="58.219" y1="-56.796" x2="55.996" y2="-52.899"/>
		<line fill="none" stroke="#000000" stroke-width="1.6" stroke-linecap="round" x1="60.5" y1="-46.406" x2="60.588" y2="-42.132"/>
		<line fill="none" stroke="#000000" stroke-width="1.6" stroke-linecap="round" x1="56.615" y1="-49.111" x2="60.885" y2="-48.9"/>
		
			<line fill="none" stroke="#000000" stroke-width="1.6" stroke-linecap="round" x1="41.855" y1="-48.546" x2="38.559" y2="-45.822"/>
		
			<line fill="none" stroke="#000000" stroke-width="1.6" stroke-linecap="round" x1="61.246" y1="-30.818" x2="59.564" y2="-26.888"/>
		<line fill="none" stroke="#000000" stroke-width="1.6" stroke-linecap="round" x1="66.084" y1="-22.915" x2="66.8" y2="-18.7"/>
		<line fill="none" stroke="#000000" stroke-width="1.6" stroke-linecap="round" x1="66.7" y1="-27.9" x2="68.275" y2="-23.926"/>
		
			<line fill="none" stroke="#000000" stroke-width="1.6" stroke-linecap="round" x1="66.743" y1="-14.819" x2="63.454" y2="-12.088"/>
		
			<line fill="none" stroke="#000000" stroke-width="1.6" stroke-linecap="round" x1="68.602" y1="-11.258" x2="70.811" y2="-14.918"/>
		
			<line fill="none" stroke="#000000" stroke-width="1.6" stroke-linecap="round" x1="59.484" y1="-16.253" x2="60.496" y2="-11.149"/>
		
			<line fill="none" stroke="#000000" stroke-width="1.6" stroke-linecap="round" x1="70.612" y1="-38.16" x2="66.349" y2="-38.484"/>
		
			<line fill="none" stroke="#000000" stroke-width="1.6" stroke-linecap="round" x1="72.363" y1="-21.291" x2="69.076" y2="-18.558"/>
		<line fill="none" stroke="#000000" stroke-width="1.6" stroke-linecap="round" x1="63.65" y1="-25.069" x2="61.85" y2="-21.192"/>
		
			<line fill="none" stroke="#000000" stroke-width="1.6" stroke-linecap="round" x1="69.434" y1="-35.304" x2="72.587" y2="-32.417"/>
		
			<line fill="none" stroke="#000000" stroke-width="1.6" stroke-linecap="round" x1="23.746" y1="-56.149" x2="21.032" y2="-53.15"/>
		
			<line fill="none" stroke="#000000" stroke-width="1.6" stroke-linecap="round" x1="30.008" y1="-51.291" x2="26.704" y2="-48.577"/>
		
			<line fill="none" stroke="#000000" stroke-width="1.6" stroke-linecap="round" x1="27.179" y1="-58.956" x2="28.413" y2="-54.861"/>
		
			<line fill="none" stroke="#000000" stroke-width="1.6" stroke-linecap="round" x1="63.748" y1="-30.754" x2="67.997" y2="-30.275"/>
		
			<line fill="none" stroke="#000000" stroke-width="1.6" stroke-linecap="round" x1="22.751" y1="-13.692" x2="21.069" y2="-9.763"/>
		<line fill="none" stroke="#000000" stroke-width="1.6" stroke-linecap="round" x1="24.288" y1="-8.533" x2="20.999" y2="-5.803"/>
		
			<line fill="none" stroke="#000000" stroke-width="1.6" stroke-linecap="round" x1="22.131" y1="-31.597" x2="25.419" y2="-28.864"/>
		
			<line fill="none" stroke="#000000" stroke-width="1.6" stroke-linecap="round" x1="64.931" y1="-54.385" x2="68.568" y2="-56.632"/>
		<line fill="none" stroke="#000000" stroke-width="1.6" stroke-linecap="round" x1="66.219" y1="-51.883" x2="64.8" y2="-47.851"/>
		
			<line fill="none" stroke="#000000" stroke-width="1.6" stroke-linecap="round" x1="15.361" y1="-15.271" x2="18.664" y2="-12.558"/>
		
			<line fill="none" stroke="#000000" stroke-width="1.6" stroke-linecap="round" x1="12.616" y1="-29.328" x2="16.725" y2="-30.507"/>
		
			<line fill="none" stroke="#000000" stroke-width="1.6" stroke-linecap="round" x1="14.838" y1="-40.094" x2="16.987" y2="-36.398"/>
		
			<line fill="none" stroke="#000000" stroke-width="1.6" stroke-linecap="round" x1="16.505" y1="-47.024" x2="20.656" y2="-48.047"/>
		
			<line fill="none" stroke="#000000" stroke-width="1.6" stroke-linecap="round" x1="18.508" y1="-32.594" x2="20.726" y2="-36.249"/>
		
			<line fill="none" stroke="#000000" stroke-width="1.6" stroke-linecap="round" x1="21.562" y1="-43.17" x2="18.274" y2="-40.438"/>
		
			<line fill="none" stroke="#000000" stroke-width="1.6" stroke-linecap="round" x1="23.342" y1="-46.568" x2="25.496" y2="-42.899"/>
		
			<line fill="none" stroke="#000000" stroke-width="1.6" stroke-linecap="round" x1="21.746" y1="-40.399" x2="24.492" y2="-35.874"/>
		
			<line fill="none" stroke="#000000" stroke-width="1.6" stroke-linecap="round" x1="20.008" y1="-29.114" x2="19.216" y2="-24.914"/>
		
			<line fill="none" stroke="#000000" stroke-width="1.6" stroke-linecap="round" x1="25.496" y1="-25.899" x2="21.489" y2="-22.822"/>
		
			<line fill="none" stroke="#000000" stroke-width="1.6" stroke-linecap="round" x1="27.446" y1="-11.596" x2="27.769" y2="-7.333"/>
		<line fill="none" stroke="#000000" stroke-width="1.6" stroke-linecap="round" x1="17.4" y1="-9.9" x2="14.112" y2="-7.169"/>
		
			<line fill="none" stroke="#000000" stroke-width="1.6" stroke-linecap="round" x1="50.746" y1="-48.899" x2="46.81" y2="-45.612"/>
		<line fill="none" stroke="#000000" stroke-width="1.6" stroke-linecap="round" x1="53.38" y1="-48.228" x2="55.53" y2="-44.532"/>
		
			<line fill="none" stroke="#000000" stroke-width="1.6" stroke-linecap="round" x1="49.311" y1="-43.944" x2="53.13" y2="-42.022"/>
		
			<line fill="none" stroke="#000000" stroke-width="1.6" stroke-linecap="round" x1="44.464" y1="-24.654" x2="41.159" y2="-21.942"/>
		<line fill="none" stroke="#000000" stroke-width="1.6" stroke-linecap="round" x1="36.198" y1="-16.8" x2="32.226" y2="-15.221"/>
		
			<line fill="none" stroke="#000000" stroke-width="1.6" stroke-linecap="round" x1="35.996" y1="-11.399" x2="37.996" y2="-7.149"/>
		
			<line fill="none" stroke="#000000" stroke-width="1.6" stroke-linecap="round" x1="52.246" y1="-14.149" x2="56.262" y2="-12.684"/>
		
			<line fill="none" stroke="#000000" stroke-width="1.6" stroke-linecap="round" x1="52.996" y1="-58.399" x2="52.588" y2="-54.025"/>
		
			<line fill="none" stroke="#000000" stroke-width="1.6" stroke-linecap="round" x1="56.85" y1="-19.869" x2="55.806" y2="-15.725"/>
		
			<line fill="none" stroke="#000000" stroke-width="1.6" stroke-linecap="round" x1="52.169" y1="-11.799" x2="48.075" y2="-10.567"/>
		
			<line fill="none" stroke="#000000" stroke-width="1.6" stroke-linecap="round" x1="48.496" y1="-37.899" x2="44.662" y2="-33.772"/>
		<line fill="none" stroke="#000000" stroke-width="1.6" stroke-linecap="round" x1="65.948" y1="-10.152" x2="67.63" y2="-6.223"/>
		
			<line fill="none" stroke="#000000" stroke-width="1.6" stroke-linecap="round" x1="72.205" y1="-24.975" x2="75.51" y2="-22.263"/>
		
			<line fill="none" stroke="#000000" stroke-width="1.6" stroke-linecap="round" x1="72.96" y1="-15.271" x2="76.264" y2="-12.558"/>
		
			<line fill="none" stroke="#000000" stroke-width="1.6" stroke-linecap="round" x1="70.215" y1="-29.328" x2="74.325" y2="-30.507"/>
		
			<line fill="none" stroke="#000000" stroke-width="1.6" stroke-linecap="round" x1="72.437" y1="-40.094" x2="74.587" y2="-36.398"/>
		
			<line fill="none" stroke="#000000" stroke-width="1.6" stroke-linecap="round" x1="74.105" y1="-47.024" x2="78.256" y2="-48.047"/>
		<line fill="none" stroke="#000000" stroke-width="1.6" stroke-linecap="round" x1="75" y1="-9.9" x2="71.711" y2="-7.169"/>
		
			<line fill="none" stroke="#000000" stroke-width="1.6" stroke-linecap="round" x1="67.148" y1="-46.953" x2="68.83" y2="-43.022"/>
		
			<line fill="none" stroke="#000000" stroke-width="1.6" stroke-linecap="round" x1="76.326" y1="-18.597" x2="72.149" y2="-17.685"/>
		
			<line fill="none" stroke="#000000" stroke-width="1.6" stroke-linecap="round" x1="18.726" y1="-18.597" x2="14.55" y2="-17.685"/>
		
			<line fill="none" stroke="#000000" stroke-width="1.6" stroke-linecap="round" x1="66.926" y1="-35.396" x2="61.746" y2="-34.149"/>
		<line fill="none" stroke="#000000" stroke-width="1.6" stroke-linecap="round" x1="22.071" y1="-50.286" x2="25.6" y2="-52.7"/>
		
			<line fill="none" stroke="#000000" stroke-width="1.6" stroke-linecap="round" x1="61.041" y1="-19.066" x2="64.044" y2="-16.023"/>
		
			<line fill="none" stroke="#000000" stroke-width="1.6" stroke-linecap="round" x1="69.092" y1="-52.845" x2="71.089" y2="-49.063"/>
		<line fill="none" stroke="#000000" stroke-width="1.6" stroke-linecap="round" x1="17.462" y1="-43.575" x2="13.2" y2="-43.9"/>
		<line fill="none" stroke="#000000" stroke-width="1.6" stroke-linecap="round" x1="75.063" y1="-43.575" x2="70.8" y2="-43.9"/>
		
			<line fill="none" stroke="#000000" stroke-width="1.6" stroke-linecap="round" x1="42.361" y1="-41.692" x2="43.496" y2="-36.649"/>
		<line fill="none" stroke="#000000" stroke-width="1.6" stroke-linecap="round" x1="58.161" y1="-25.093" x2="59" y2="-20.9"/>
		
			<line fill="none" stroke="#000000" stroke-width="1.6" stroke-linecap="round" x1="63.216" y1="-43.542" x2="66.957" y2="-41.471"/>
		<line fill="none" stroke="#000000" stroke-width="1.6" stroke-linecap="round" x1="50.996" y1="-7.149" x2="47.97" y2="-8.121"/>
		<line fill="none" stroke="#000000" stroke-width="1.6" stroke-linecap="round" x1="36.647" y1="-59.651" x2="36.2" y2="-55.4"/>
		
			<line fill="none" stroke="#000000" stroke-width="1.6" stroke-linecap="round" x1="17.996" y1="-55.899" x2="18.996" y2="-50.649"/>
		
			<line fill="none" stroke="#000000" stroke-width="1.6" stroke-linecap="round" x1="72.246" y1="-53.399" x2="73.74" y2="-57.405"/>
		
			<line fill="none" stroke="#000000" stroke-width="1.6" stroke-linecap="round" x1="14.646" y1="-53.399" x2="16.14" y2="-57.405"/>
		<line fill="none" stroke="#000000" stroke-width="1.6" stroke-linecap="round" x1="63.746" y1="-8.774" x2="61.996" y2="-4.899"/>
		<line fill="none" stroke="#000000" stroke-width="1.6" stroke-linecap="round" x1="60.329" y1="-1.734" x2="56.657" y2="-3.923"/>
		<line fill="none" stroke="#000000" stroke-width="1.6" stroke-linecap="round" x1="45.496" y1="-6.3" x2="43.708" y2="-0.809"/>
		<line fill="none" stroke="#000000" stroke-width="1.6" stroke-linecap="round" x1="37.496" y1="-5.05" x2="40.496" y2="-0.8"/>
		<line fill="none" stroke="#000000" stroke-width="1.6" stroke-linecap="round" x1="66.934" y1="-4.135" x2="63.63" y2="-1.425"/>
		<line fill="none" stroke="#000000" stroke-width="1.6" stroke-linecap="round" x1="24.529" y1="-5.673" x2="23.6" y2="-1.502"/>
		<line fill="none" stroke="#000000" stroke-width="1.6" stroke-linecap="round" x1="30.996" y1="-5.899" x2="27.746" y2="-3.55"/>
		<line fill="none" stroke="#000000" stroke-width="1.6" stroke-linecap="round" x1="17.595" y1="-6.099" x2="18.4" y2="-1.901"/>
		<line fill="none" stroke="#000000" stroke-width="1.6" stroke-linecap="round" x1="70" y1="-1.102" x2="72.209" y2="-4.76"/>
		<line fill="none" stroke="#000000" stroke-width="1.6" stroke-linecap="round" x1="49.996" y1="-0.8" x2="49.97" y2="-4.073"/>
		<line fill="none" stroke="#000000" stroke-width="1.6" stroke-linecap="round" x1="32.905" y1="-7.364" x2="33.621" y2="-3.149"/>
		<line fill="none" stroke="#000000" stroke-width="1.6" stroke-linecap="round" x1="53.148" y1="-5.703" x2="54.996" y2="-2.399"/>
		
			<line fill="none" stroke="#000000" stroke-width="1.6" stroke-linecap="round" x1="60.329" y1="-59.334" x2="56.657" y2="-61.522"/>
		
			<line fill="none" stroke="#000000" stroke-width="1.6" stroke-linecap="round" x1="45.496" y1="-63.899" x2="43.708" y2="-58.407"/>
		
			<line fill="none" stroke="#000000" stroke-width="1.6" stroke-linecap="round" x1="37.496" y1="-62.649" x2="40.496" y2="-58.399"/>
		
			<line fill="none" stroke="#000000" stroke-width="1.6" stroke-linecap="round" x1="66.934" y1="-61.734" x2="63.63" y2="-59.023"/>
		<line fill="none" stroke="#000000" stroke-width="1.6" stroke-linecap="round" x1="24.529" y1="-63.272" x2="23.6" y2="-59.101"/>
		<line fill="none" stroke="#000000" stroke-width="1.6" stroke-linecap="round" x1="30.996" y1="-63.5" x2="27.746" y2="-61.149"/>
		<line fill="none" stroke="#000000" stroke-width="1.6" stroke-linecap="round" x1="17.595" y1="-63.698" x2="18.4" y2="-59.501"/>
		<line fill="none" stroke="#000000" stroke-width="1.6" stroke-linecap="round" x1="70" y1="-58.7" x2="72.209" y2="-62.359"/>
		
			<line fill="none" stroke="#000000" stroke-width="1.6" stroke-linecap="round" x1="49.996" y1="-58.399" x2="49.97" y2="-61.674"/>
		
			<line fill="none" stroke="#000000" stroke-width="1.6" stroke-linecap="round" x1="32.905" y1="-64.965" x2="33.621" y2="-60.75"/>
		<line fill="none" stroke="#000000" stroke-width="1.6" stroke-linecap="round" x1="53.148" y1="-63.304" x2="54.996" y2="-60"/>
		<line fill="none" stroke="#000000" stroke-width="1.6" stroke-linecap="round" x1="5.246" y1="-55.899" x2="6.246" y2="-50.649"/>
	</g>
</pattern>
<pattern  width="71.999" height="72" patternUnits="userSpaceOnUse" id="Diagonal_Lines" viewBox="0 0 71.999 72" overflow="visible">
	<g transform="translate(-28.856,76.621)">
		<polygon fill="none" points="28.856,-4.621 28.856,-76.621 100.855,-76.621 100.855,-4.621 		"/>
		<line fill="#FFFFFF" x1="5.106" y1="-10.621" x2="11.106" y2="-4.621"/>
		<line fill="#FFFFFF" x1="5.106" y1="-4.621" x2="11.106" y2="-10.621"/>
		
			<line fill="none" stroke="#000000" stroke-width="0.3" stroke-linejoin="round" x1="21.372" y1="-66.105" x2="39.371" y2="-84.105"/>
		
			<line fill="none" stroke="#000000" stroke-width="0.3" stroke-linejoin="round" x1="21.372" y1="-60.105" x2="45.371" y2="-84.105"/>
		
			<line fill="none" stroke="#000000" stroke-width="0.3" stroke-linejoin="round" x1="21.372" y1="-54.105" x2="51.371" y2="-84.105"/>
		
			<line fill="none" stroke="#000000" stroke-width="0.3" stroke-linejoin="round" x1="21.372" y1="-48.105" x2="57.371" y2="-84.105"/>
		
			<line fill="none" stroke="#000000" stroke-width="0.3" stroke-linejoin="round" x1="21.372" y1="-42.105" x2="63.371" y2="-84.105"/>
		
			<line fill="none" stroke="#000000" stroke-width="0.3" stroke-linejoin="round" x1="21.372" y1="-36.105" x2="69.371" y2="-84.105"/>
		
			<line fill="none" stroke="#000000" stroke-width="0.3" stroke-linejoin="round" x1="21.372" y1="-30.105" x2="75.371" y2="-84.105"/>
		
			<line fill="none" stroke="#000000" stroke-width="0.3" stroke-linejoin="round" x1="21.372" y1="-24.105" x2="81.371" y2="-84.105"/>
		
			<line fill="none" stroke="#000000" stroke-width="0.3" stroke-linejoin="round" x1="21.372" y1="-18.105" x2="87.371" y2="-84.105"/>
		
			<line fill="none" stroke="#000000" stroke-width="0.3" stroke-linejoin="round" x1="21.372" y1="-12.105" x2="93.371" y2="-84.105"/>
		
			<line fill="none" stroke="#000000" stroke-width="0.3" stroke-linejoin="round" x1="21.372" y1="-6.105" x2="99.371" y2="-84.105"/>
		
			<line fill="none" stroke="#000000" stroke-width="0.3" stroke-linejoin="round" x1="21.372" y1="-0.106" x2="105.371" y2="-84.105"/>
		
			<line fill="none" stroke="#000000" stroke-width="0.3" stroke-linejoin="round" x1="27.372" y1="-0.106" x2="105.371" y2="-78.105"/>
		
			<line fill="none" stroke="#000000" stroke-width="0.3" stroke-linejoin="round" x1="33.371" y1="-0.106" x2="105.371" y2="-72.105"/>
		
			<line fill="none" stroke="#000000" stroke-width="0.3" stroke-linejoin="round" x1="39.371" y1="-0.106" x2="105.371" y2="-66.105"/>
		
			<line fill="none" stroke="#000000" stroke-width="0.3" stroke-linejoin="round" x1="45.371" y1="-0.106" x2="105.371" y2="-60.105"/>
		
			<line fill="none" stroke="#000000" stroke-width="0.3" stroke-linejoin="round" x1="51.371" y1="-0.106" x2="105.371" y2="-54.105"/>
		
			<line fill="none" stroke="#000000" stroke-width="0.3" stroke-linejoin="round" x1="57.371" y1="-0.106" x2="105.371" y2="-48.105"/>
		
			<line fill="none" stroke="#000000" stroke-width="0.3" stroke-linejoin="round" x1="63.371" y1="-0.106" x2="105.371" y2="-42.105"/>
		
			<line fill="none" stroke="#000000" stroke-width="0.3" stroke-linejoin="round" x1="69.371" y1="-0.106" x2="105.371" y2="-36.105"/>
		
			<line fill="none" stroke="#000000" stroke-width="0.3" stroke-linejoin="round" x1="75.371" y1="-0.106" x2="105.371" y2="-30.105"/>
		
			<line fill="none" stroke="#000000" stroke-width="0.3" stroke-linejoin="round" x1="81.371" y1="-0.106" x2="105.371" y2="-24.105"/>
		
			<line fill="none" stroke="#000000" stroke-width="0.3" stroke-linejoin="round" x1="87.371" y1="-0.106" x2="105.371" y2="-18.105"/>
		
			<line fill="none" stroke="#000000" stroke-width="0.3" stroke-linejoin="round" x1="93.371" y1="-0.106" x2="105.371" y2="-12.105"/>
		
			<line fill="none" stroke="#000000" stroke-width="0.3" stroke-linejoin="bevel" x1="0.106" y1="-63.121" x2="10.106" y2="-73.121"/>
	</g>
</pattern>
<pattern  width="71.999" height="71.998" patternUnits="userSpaceOnUse" id="Mezzotint_1" viewBox="0 0 71.999 71.998" overflow="visible">
	<g transform="translate(-5.252,82.198)">
		<polygon fill="none" points="5.252,-10.2 5.252,-82.198 77.251,-82.198 77.251,-10.2 		"/>
		<polygon points="12.251,-19.699 11.726,-21.012 14.352,-22.062 10.938,-19.174 		"/>
		<path d="M13.701-81.999c-5,3.1,0.899,6.6,1,10c1.399,0.399,2-1.3,3-2c0.3-0.9-0.5-1.4-1-2l-1,1c-0.3-1.699,0.8-4-1-5
			c0.899,0.301,1.399-0.5,2-1c-1.8,0.7-0.7,2.7-1,4c0.7,1,2.399,1.6,2,3l-2,2l1,1c-0.5,0.6-1.3,1.1-1,2c1.6,1.6,3.899,4.6,6,2l-1,1
			c2.5,0.5-3.101,0.399-4-1c-1-2.601-1.601-6.3-5-7l1,1c2.7-1.699-0.7-3.3-1-5h-1C11.701-79.299,12.701-81.499,13.701-81.999z"/>
		<path d="M58.701-77.999l-0.7-0.699l1-1l0.7,0.699L58.701-77.999c-1-0.699-1.601-2.4-3-2c-0.5,0.6-1.3,1.1-1,2c2.6,2.5-1.3-0.8,0-2
			C56.601-80.6,57.501-79.1,58.701-77.999z"/>
		<path d="M20.701-73.249c-0.9-0.3-1.4,0.5-2,1c-0.3,0.899,0.5,1.399,1,2c2.1-0.3,3.3-2.699,5-4c-0.601-1.199-1.9-1-3-1
			c1.1,0,2.399,0.2,3-1l-1,1l1,1l-3,3l1,1c0,2.5,0.2-1-1-1c-1.101,1.301-2.601,1.5-4,2l1-1l-1-1c1.8-1.199,2.3-2.9,2-5
			C19.701-75.149,19.501-73.85,20.701-73.249z"/>
		<path d="M63.201-67.749c0.6,1.899-0.9,2.801-2,4l1,1c-0.5,0.6-1.3,1.1-1,2c-2-2.699-4,0.7-6,1c-1.2,1.399,2.2-1.4,1-3
			c-0.3,0.899,0.5,1.399,1,2l5-2l-1-1l2-2l-2-2H63.201z"/>
		<path d="M66.951-60.749c3.399,2.1,1.75,2.75,1.75,3.75l-2,2c2.7,4,4.8-7.199,7.3-3.699c2.5,1.299-0.3,0.299-1-1l-6.3,6.699l1-1
			l-1-1c1.3-2.699,4.05-3.25,0.25-6.75l1-1C68.251-61.85,67.451-61.35,66.951-60.749z"/>
		<path d="M71.93-56.143c2.152,0.688-1.886,3.405-2.815,5.137c1.155-0.829,2.047-0.716,2.998-0.853
			c0.644,0.317-0.322,1.192-0.853,1.911c-1.813,1.248-3.075,0.673-4.626,0.981l3.515,0.334c0.693-0.73,1.171-1.567,2.481-2.04
			c-3.715-1.179,0.871-4.184,0.41-6.788L71.93-56.143z"/>
		<path d="M63.701-45.999c0.6-0.5,1.1-1.3,2-1l1,1l1-1v2c-1.2-2.101-3.3-2.3-5-1v-1L63.701-45.999z"/>
		<path d="M61.951-42.499c-0.601-0.5-1.3-0.25-2.2,0.05c1.9-1.2-1.9-3.8,0-5C58.451-45.85,61.251-44.499,61.951-42.499z"/>
		<path d="M65.151-30.799c1.1,0,2.399-0.2,3,1l-0.7-0.7l2-2l0.7,0.7l-3,3c0.3-0.9-0.5-1.4-1-2H65.151z"/>
		<path d="M26.701-21.999c-0.601-1.2-1.9-1-3-1c-2,1,0.3,2.8,1,4l-0.7-0.7l1-1l0.7,0.7l-1,1c-1.5-0.101-0.9-4.5-4-3l-1,1
			c0.5,0.6,1.3,1.1,1,2l-1,1l3,2c-0.601-0.5-1.101-1.3-2-1l-1,1c0.3-0.9-0.5-1.4-1-2c0.899,0.3,1.399-0.5,2-1c-0.5-1.4-0.7-2.9-2-4
			c1.2,1,5.3,2.2,5-1C25.101-24.399,25.701-22.699,26.701-21.999z"/>
		<path d="M17.701-19.999c-0.5,0.6-1.3,1.1-1,2c-0.601-0.5-1.101-1.3-2-1l0.7,0.7l-1,1l-0.7-0.7l2-2l1,1L17.701-19.999z"/>
		<path d="M10.701-14.999c1.899,2.7,3.6-0.9,6,0c-0.5,0.6-1.3,1.1-1,2c-0.601-0.5-1.101-1.3-2-1c-0.5,0.6-1.3,1.1-1,2
			c1,0-5.7-2.7-1-6C11.701-16.899,11.901-15.6,10.701-14.999z"/>
		<path d="M12.014-36.358c1.028,1.707,2.695,1.176,4.323,1.145l0.089,1.412c0.78,0.022,1.685-0.248,2.161,0.572
			c-0.703-3.286,3.171-2.537,4.718-3.84c1.844,0.026-2.504,0.726-2.912-1.233c0.874,0.37,0.721,1.301,0.84,2.073l-4.807,2.428
			l-0.089-1.412l-2.823,0.178l-0.178-2.822L12.014-36.358z"/>
		<path d="M13.347-56.351l0.808,1.16l2.321-1.615l0.808,1.16l1.161-0.808l-0.177,0.984c1.6-0.424-4.561,0.504-7.066-0.25
			C12.034-55.265,12.667-55.964,13.347-56.351z"/>
		<path d="M64.551-75.07c3.801,1.251-1.075,4.5,0.809,6.659C63.919-70.624,67.101-72.992,64.551-75.07z"/>
		<polygon points="68.751,-65.448 67.217,-64.166 70.501,-70.448 		"/>
		<path d="M15.001-52.449l1,1l-3,3l1,1h-1v-2c0.9,0.3,1.4-0.5,2-1c0.3-0.9-0.5-1.4-1-2c0.6-0.5,1.1-1.3,2-1L15.001-52.449z"/>
		<path d="M21.251-46.949c0.6,0.5,1.1,1.3,2,1c1.2-0.6,1-1.9,1-3h1l-1,1l0.7-0.7l2,2l-0.7,0.7c-0.6-0.5-1.1-1.3-2-1l-2,2l1,1l-1,1
			c1.5-2.6-3-4,0-6C21.751-48.35,20.951-47.85,21.251-46.949z"/>
		<polygon points="12.251,-44.949 14.251,-45.949 16.251,-43.949 		"/>
		<path d="M20.251-44.949c-1,1.3-3.1,2.2-3,4v1h-2v-1c1.4,0.4,2-1.3,3-2v-3C18.851-45.449,19.351-44.649,20.251-44.949z"/>
		<path d="M73.762-72.256l0.974,0.228l0.143,1.675l-0.973-0.228c-0.152-1.985-0.096-1.331,1.25-2.25
			c-0.472-0.623,0.694-2.337-0.25-2.25l0.74-0.842L73.762-72.256z"/>
		<path d="M56.501-9.95c-1.1,0.5,4.1-2.499,3-4.999C60.601-12.449,57.501-11.649,56.501-9.95z"/>
		<path d="M68.263-26.858l-0.012-1.414c2.339,0.615,3.954-0.741,4.22-2.864c1.472-1.498-2.319,1.786,0.022,2.828
			c-2.624-0.897-4.019,1.376-5.632,2.875l0.012,1.415c4.238-0.461-2.111,1.148-0.012-1.415l0.008,0.991l-1.414,0.012l-0.009-0.99
			C66.723-25.008,67.492-26.075,68.263-26.858z"/>
		<path d="M69.251-13.949l-3,4.999c-3.3,1.7,6.8-7.199-1-3.999l-0.7,0.7l-1-1l0.7-0.7c1,2,2.8-0.3,4-1c-2.4-1.2-2.4-3.8,0-5
			C65.251-19.049,66.751-15.549,69.251-13.949z"/>
		<path d="M61.001-25.449h1v2h-1c-0.6-1.9,0.9-2.8,2-4c-0.6-0.5-1.1-1.3-2-1l1-1c-1-1-3.3-2.8-1-4
			C57.701-30.049,68.601-26.949,61.001-25.449z"/>
		<path d="M58.751-54.199v1c-0.6-1.2-1.9-1-3-1l-1,1c2.7,0.1,1.4-1.65,1.5-3.249C58.951-53.449,55.451-55.698,58.751-54.199z"/>
		<path d="M64.501-49.449c0.6-0.5,1.1-1.3,2-1C65.901-49.949,65.401-49.149,64.501-49.449l-3-3l-2,2l1-2
			C62.301-51.649,63.701-51.549,64.501-49.449z"/>
		<path d="M69.251-76.198l1,1c-1.4-0.401-2,1.299-3,2l2,2c1.3-1,2.2-3.101,4-3c-1.6-0.5-3.7,5.099-6,2c0.7-1.801,2.1-4.201,3-5
			L69.251-76.198z"/>
		<path d="M62.751-76.198c0.2,1.5-1.7,2.299-1,4l1,1l-0.7-0.701l1-1l0.7,0.701c-1.2,0.599-1,1.899-1,3l-2-7H62.751z"/>
		<path d="M66.001-63.198c-1.2-0.601-1-1.901-1-3c1.4,0.399,2-1.301,3-2l-1-2C70.501-67.499,63.701-66.6,66.001-63.198z"/>
		<path d="M7.088-85.039c3.245,0.868-2.049,6.071,1.391,5.98l1.13-0.171l1.014-1.394l-1.13,0.172l-1.014,1.393
			c-4.059,1.237-0.071-2.466-0.188-3.687L7.088-85.039z"/>
		<path d="M11.251-33.449l1.437,0.245l-1.437,1.148l-0.718-3.605C11.396-35.096,11.18-34.228,11.251-33.449z"/>
		<path d="M55.351-66.63c2.089,0.063,1.018-4.78,4.122-7.868l-4.854-0.196l3.38,0.342l0.615-1.416
			C59.725-72.964,57.773-70.261,55.351-66.63z"/>
		<path d="M12.801-28.685c-0.501-2.385,2.154-2.418,3.591-2.868v1.393c-2.37-1.031-4.021,0.01-4.309,2.05l-0.718-0.819
			L12.801-28.685z"/>
		<path d="M9.379-27.476v1.393l2.872,0.491v1.393l1.437,0.245l-0.719,0.574c1.581,0.827-4.093-2.858-5.743-5.16
			C7.656-27.631,8.59-27.68,9.379-27.476z"/>
		<path d="M21.814-26.695v-1.392l1.437,0.245v1.393c2.729,1.024-5.601-2.489-4.308,2.049c-1.867,1.073,2.01-0.491,0.718-1.967
			l-2.153,0.328C18.871-26.433,20.092-27.129,21.814-26.695z"/>
		<path d="M56.259-49.081c1.65,0.074,3.804,1.278,5.025,0.163c-0.862,3.194,3.159,1.655,4.308,3.521
			c-0.431,0.763-1.363,0.395-2.154,0.329c0.144-1.646-2.584-2.949-4.308-3.522L56.259-49.081l0.717,3.605l-0.717-4.999V-49.081z"/>
		<path d="M22.691-58.069c-2.586,0.533-0.934,3.531-1.437,5.326c-0.431-0.91-1.363-0.86-2.154-1.065
			c-0.861,0.271-0.646,1.214-0.717,1.967c0.717,1.377,2.368,0.893,3.589,1.312l-3.589,0.081c-0.073-0.778,0.143-1.646-0.719-2.212
			c4.451-0.91,2.514-4.235,5.026-6.8V-58.069z"/>
		<path d="M10.909-43.34l-0.972-0.314l0.2-1.378l0.971,0.314L10.909-43.34l2.771,0.898c-0.039,0.78-0.377,1.609,0.395,2.292
			l-0.793,0.465C12.292-40.871,13.465-43.45,10.909-43.34l-0.793,0.465L8.28-48.331C9.229-46.363,7.582-43.912,10.909-43.34z"/>
		<path d="M16.667-48.104c0.489-3.507-0.267,2.19,2.175,0.149l-3,0.255L16.667-48.104z"/>
		<path d="M12.138-63.632c0.071-0.754-0.144-1.696,0.717-1.967C12.784-64.845,12.999-63.903,12.138-63.632l-4.309-0.737v2.786
			l-0.718-2.212C8.979-64.172,10.055-64.893,12.138-63.632z"/>
		<path d="M15.381-64.765c0.706-0.274,1.452-0.889,2.08-0.239l0.424,1.395l1.245-0.625l-0.821,2.018
			c-0.139-2.58-1.81-3.591-3.762-2.934l0.411-1.009L15.381-64.765z"/>
		<path d="M25.152-51.83l1.132-0.849l-0.283,1.979l-2.688-2.404C24.247-53.272,24.629-52.41,25.152-51.83z"/>
		<path d="M8.354-70.827l1.436,0.246c-1.292,0.475-0.502,2.212-0.718,3.359l2.872,0.49c0.216-1.564-0.646-3.801,0.718-4.752
			c-1.507,0.508,1.006,6.3-2.872,5.08c-0.79-1.876-1.508-4.645-1.436-5.815V-70.827z"/>
		<path d="M7.159-75.711l-1.005-0.172v-1.393l1.005,0.171V-75.711l2.872,0.491c0.072,0.778-0.144,1.646,0.718,2.212l-0.718,0.573
			C8.883-73.467,9.672-76.188,7.159-75.711l-0.718,0.573L3.57-81.2C4.79-79.39,3.785-75.801,7.159-75.711z"/>
		<path d="M3.271-51.19c-0.287,2.04,4.954-0.197,7.897,2.048l0.719-4.753l-0.719,3.359l1.436,0.245
			C9.517-48.521,6.861-49.741,3.271-51.19z"/>
		<path d="M2.566-38.087c3.66,1.392,1.436-4.49,5.742-1.805c-2.584-1.694-3.875,1.148-4.307,3.442
			c1.291,0.64,2.081-0.271,2.871-0.901c-0.861,0.271-0.646,1.213-0.718,1.967l0.718-0.574l0.719,0.819l-0.719,0.573
			c3.662,0.557-1.508,0.09-1.436-1.639c-3.446-1.425-1.148,2.868-2.871,3.688V-38.087z"/>
		<path d="M2.154-20.979l2.872-3.688c1.075,2.9,3.374,1.204,5.024,1.557l-1.436-0.247v1.394C8.184-24.545,2.729-21.438,0-20.651
			L2.154-20.979z"/>
		<path d="M2.391-68.808c1.005,2.402,4.522-3.055,2.153-5.897l2.871,7.454c-0.071-0.778,0.144-1.646-0.718-2.212
			c-2.513-1.335-1.722,1.655-2.871,2.295L2.391-68.808z"/>
		<path d="M71.001-34.199c0.072-0.754-0.144-1.696,0.718-1.966C71.646-35.412,71.863-34.47,71.001-34.199l-4.308-0.737v2.786
			l-0.718-2.212C67.842-34.738,68.919-35.46,71.001-34.199z"/>
		<path d="M73.592-47.71c-0.934,1.582-0.145,4.572-3.591,2.868v1.393c-0.79-0.066-1.723-0.434-2.154,0.328
			c0.072,0.778-0.144,1.646,0.718,2.212l-1.436-0.245C64.976-44.029,73.592-43.113,73.592-47.71z"/>
		<path d="M5.928-29.672L5.42-31.065c2.745,1.032,4.018-0.007,3.562-2.047c1.07-1.205-1.883,1.334,1.014,2.784
			c-3.15-1.359-3.866,0.623-5.087,1.803l0.506,1.394c4.425,0.319-1.881,0.746-0.506-1.394l0.354,0.976l-1.524-0.245l-0.355-0.976
			C4.909-28.131,5.367-29.041,5.928-29.672z"/>
		<path d="M21.707-84.35c-0.357,1.583,1.52,4.573-2.546,2.868l0.507,1.394c-0.813-0.066-1.882-0.434-2.034,0.328
			c0.354,0.778,0.456,1.647,1.522,2.212l-1.525-0.246C14.43-80.669,23.38-79.753,21.707-84.35z"/>
		<path d="M72.832-69.396c-2.391,0.533,0.352,3.532,0.502,5.325c-0.762-0.909-1.677-0.859-2.541-1.063
			c-0.764,0.271-0.205,1.212-0.003,1.966c1.219,1.376,2.695,0.893,4.067,1.31l-3.561,0.083c-0.354-0.778-0.455-1.646-1.523-2.212
			c4.122-0.909,0.972-4.236,2.552-6.801L72.832-69.396z"/>
		<path d="M74.999-17.774c-3.202-1.695-3.46,1.147-3.056,3.441c1.524,0.639,1.984-0.271,2.544-0.901
			c-0.763,0.271-0.205,1.213-0.002,1.967l0.509-0.574l1.016,0.819l-0.509,0.573c3.864,0.558-1.475,0.091-2.032-1.638
			c-3.966-1.425-0.104,2.867-1.53,3.687l-0.503-5.325l0.355,0.975l-1.524-0.245l-0.355-0.975
			C74.079-14.579,69.713-20.461,74.999-17.774z"/>
		<path d="M63.707-43.35c-0.357,1.583,1.52,4.573-2.546,2.869l0.507,1.393c-0.813-0.066-1.882-0.434-2.034,0.328
			c0.354,0.777,0.456,1.647,1.522,2.212l-1.525-0.246C56.43-39.669,65.38-38.753,63.707-43.35z"/>
		<path d="M59.67-57.045c1.626,1.114,1.472,2.858,3.556,3.85l1.525,0.246l-1.067-0.172l-0.508-1.393l1.068,0.172
			c-0.001,1.18,1.422,2.13,2.539,3.03l-8.131-4.586L59.67-57.045z"/>
		<path d="M66.727-62.135c-3.561,0.868-0.159,6.071-3.566,5.98l-1.068-0.172l-0.507-1.392l1.068,0.171l0.507,1.393
			c3.609,1.237,0.969-2.466,1.529-3.687l-1.524-0.245L66.727-62.135z"/>
		<path d="M17.822-57.884l-0.188-3.688c-3.188,2.9-4.25,1.203-6.158,1.555l1.614-0.244l-1.014,1.393
			c2.309-2.58,5.505,0.525,7.661,1.312l1.014-1.393C19.658-58.04,18.762-58.089,17.822-57.884z"/>
		<path d="M9.398-60.276l0.021-0.92l4.354-0.437l0.021-0.921l2.177-0.218l-1.076-0.353c2.403-0.607-6.239,2.049-8.774,3.636
			C6.787-60.106,8.199-60.11,9.398-60.276z"/>
		<path d="M4.6-65.731l-1.315,0.82c1.758-0.639,1.885,0.27,2.215,0.901l-1.013,1.393c-0.943-1.467,0.443,2.843,2.516,1.476
			C2.248-60.233,7.561-65.066,4.6-65.731z"/>
		<path d="M8.001-54.699c-0.838,0.065-2.039,0.434-1.915-0.327c0.428-1.181,2.196-2.131,3.643-3.032l-0.3-0.573l-1.015,1.394
			l0.709-0.976l-3.229,0.49l-0.71,0.976c0.837-0.064,2.038-0.435,1.915,0.328l-2.026,2.786l-1.615,0.245l-1.014,1.393
			c2.966-2.989,6.157-1.556,7.885-4.915C9.691-56.133,9.273-55.265,8.001-54.699z"/>
		<path d="M9.001-52.449l0.313-1.423l1.077,1.49l-3.634,0.544C7.363-52.672,8.221-52.415,9.001-52.449z"/>
		<polygon points="17.226,-37.131 18.875,-36.636 14.809,-39.067 14.367,-38.595 16.784,-36.657 		"/>
		<path d="M23.001-31.199c-0.838,0.065-2.039,0.434-1.915-0.327c0.428-1.181,2.196-2.131,3.643-3.032l-0.3-0.573l-1.015,1.394
			l0.709-0.976l-3.229,0.49l-0.711,0.976c0.838-0.064,2.039-0.435,1.916,0.328l-2.027,2.786l-1.615,0.245l-1.014,1.393
			c2.967-2.989,6.158-1.556,7.886-4.915C24.691-32.633,24.273-31.764,23.001-31.199z"/>
		<path d="M78.441-75.138L75.569-81.2c1.22,1.811,0.215,5.399,3.59,5.489l-1.005-0.172L78.441-75.138z"/>
		<path d="M84.604-50.291c-3.088,1.77-5.743,0.55-9.334-0.899c-0.287,2.04,4.955-0.197,7.898,2.048L84.604-50.291z"/>
		<path d="M78.873-34.565c3.662,0.557-1.508,0.09-1.436-1.639c-3.447-1.425-1.149,2.868-2.873,3.688l1.437-5.325v0.975l-1.437-0.245
			v-0.975c3.662,1.392,1.437-4.49,5.744-1.805c-2.584-1.694-3.877,1.148-4.308,3.442c1.292,0.64,2.082-0.271,2.872-0.901V-34.565z"
			/>
		<path d="M80.615-21.964c-0.432-2.581-5.889,0.525-8.616,1.312v-1.394c0.431,0.91,1.364,0.86,2.154,1.065l2.872-3.688
			c1.076,2.9,3.375,1.204,5.025,1.557L80.615-21.964z"/>
		<path d="M78.501-44.699c-1.65,0.345-2.944-2.384-4.308-0.737v-1.393L78.501-44.699z"/>
		<path d="M79.415-67.251c-0.071-0.778,0.144-1.646-0.718-2.212c-2.514-1.335-1.723,1.655-2.872,2.295
			c-1.795,1.435,0.862-0.41,0-1.394l-1.437-0.246c1.006,2.402,4.524-3.055,2.154-5.897L79.415-67.251z"/>
		<path d="M77.928-29.672l-0.508-1.394c2.745,1.032,4.018-0.007,3.562-2.047c1.07-1.205-1.883,1.334,1.014,2.784
			c-3.15-1.359-3.866,0.623-5.088,1.803l0.507,1.394c4.425,0.319-1.882,0.746-0.507-1.394l0.354,0.976l-1.524-0.245l-0.354-0.976
			C76.908-28.131,77.367-29.041,77.928-29.672z"/>
		<path d="M76.598-65.731l-1.314,0.82c1.758-0.639,1.886,0.27,2.216,0.901l-1.014,1.393c-0.942-1.467,0.444,2.843,2.517,1.476
			C74.247-60.233,79.561-65.066,76.598-65.731z"/>
		<path d="M77.895-57.724l-0.711,0.976c0.838-0.064,2.039-0.435,1.916,0.328l-2.027,2.786l-1.615,0.245l-1.014,1.393
			c2.967-2.989,6.158-1.556,7.886-4.915c-0.638,0.778-1.056,1.646-2.328,2.212c-0.838,0.065-2.039,0.434-1.915-0.327L77.895-57.724z
			"/>
		<path d="M10.701-6c1-1.3,2-3.5,3-4c-5,3.1,0.899,6.6,1,10L10.701-6z"/>
		<path d="M17.631-5.795C14.43-8.67,23.38-7.754,21.707-12.35c-0.357,1.583,1.52,4.571-2.546,2.867L17.631-5.795z"/>
		<path d="M62.127-35.455l-1.314,0.819c1.758-0.64,1.886,0.271,2.217,0.901l-1.014,1.393c-0.943-1.467,0.442,2.843,2.516,1.475
			C59.777-29.958,65.09-34.791,62.127-35.455z"/>
		<path d="M62.278-9.355c0.477-0.754,1.378-1.695,0.714-1.966l-1.615,0.245l1.015-1.392l-2.629,1.638
			c3.121-1.032,4.015,0.009,2.816,2.048L62.278-9.355z"/>
		<path d="M63.955-37.657c4.061-1.236,0.072,2.466,0.188,3.688c-0.912,1.253,0.854-1.368,2.141-5.899
			C65.646-39.091,65.229-38.222,63.955-37.657z"/>
		<path d="M66.926-83.21c-0.748-0.198-1.926,0.652-2.976,1.217l-1.747,4.745l1.882-1.105l0.615,1.766l3.765-2.211l-1.576,1.987
			c-2.552,0.809-2.355-0.582-2.804-1.542l-1.882,1.105c-0.264-0.43-0.18-1.169-1.402-0.77c4.53-2.29,2.383-3.897,3.629-5.852
			L66.926-83.21z"/>
		<path d="M72.347-79.285c-0.487,0.58-1.311,1.087-0.898,1.892l1.182,0.851l-0.992,0.977l2.175-0.125
			c-2.397-0.966-2.814-2.872-1.562-4.507l-1.088,0.062L72.347-79.285z"/>
		<path d="M66.592-81.684c-0.697,0.644-0.238,1.468-0.091,2.235c1.277-1.694,5.54-1.97,2.897-5.255
			c0.934,0.174,0.985,1.115,1.27,1.843c-2.419,0.035-2.034,4.931-5.043,2.928L66.592-81.684z"/>
		<path d="M69.622-38.154l0.729,0.685l-1.371,1.456l-0.729-0.686c0.865-1.795,2.574-1.422,4.198-1.542
			c-0.095-0.775,0.09-1.7-0.771-2.099l1.413-0.043c-0.043-1.413-0.484-4.301,2.013-3.598C70.371-43.767,76.184-34.039,69.622-38.154
			z"/>
		<path d="M63.594-22.699c-0.959,3.22-6.012-2.218-6.018,1.224l0.141,1.134l1.363,1.053l-0.141-1.135l-1.363-1.052
			c-1.123-4.094,2.467-0.004,3.69-0.087l0.2,1.621L63.594-22.699z"/>
		<path d="M71.501-26.449c-0.9-0.3-1.4,0.5-2,1c2.1,0.3,4.4,3.9,6,0c0.3,0.9-0.5,1.4-1,2c-1.2-2.1-5.3,0.6-5-3H71.501z"/>
		<path d="M65.408-20.374l-0.262-1.39l1.39-0.262l0.263,1.39c2.744,0.058-5.709-0.508-3.646,3.564
			c-1.545,1.73,1.788-1.2,0.302-2.216l-1.954,1.088C62.703-19.072,63.715-20.199,65.408-20.374z"/>
		<path d="M80.001-17.449c-1.4-0.4-2,1.3-3,2c0,2.5,0.2-1-1-1l-1,1l1-2c-0.3,0.9,0.5,1.4,1,2l2-3L80.001-17.449z"/>
		<polygon points="69.551,-19.592 68.201,-22.271 70.444,-20.042 70.895,-19.149 70.001,-18.699 		"/>
		<path d="M75.073-19.168c2.733,0.521,4.433-0.569,6.572-0.866l-3.363,0.747l-1.373-0.884
			C78.271-21.188,74.906-19.786,75.073-19.168z"/>
		<polygon points="75.501,-30.449 73.621,-29.767 77.638,-33.354 		"/>
		<path d="M6.501-44.699c-1.65,0.345-2.942-2.384-4.307-0.737v-1.393L6.501-44.699z"/>
		<path d="M4.002-17.449c-0.3,0.9,0.5,1.4,1,2l1.999-3l1,1c-1.4-0.4-2,1.3-2.999,2c0,2.5,0.2-1-1-1V-17.449z"/>
		<path d="M3.074-19.168c2.732,0.521,4.432-0.569,6.571-0.866l-3.363,0.747L4.91-20.171C6.271-21.188,2.907-19.786,3.074-19.168z"/>
		<polygon points="3.502,-30.449 1.622,-29.767 5.638,-33.354 		"/>
		<path d="M8.979-8.059C4.92-6.821,8.907-10.524,8.79-11.745l1.615-0.246l-2.817-2.048C10.833-13.171,5.538-7.969,8.979-8.059z"/>
		<path d="M14.501-28.699c1.395,1.144,0.64,3.299,0.921,4.914l-0.121-2.824l-1.413,0.061C13.119-24.675,13.745-28.171,14.501-28.699
			z"/>
		<path d="M8.251-37.449c0.619-1.146,2.675-2.884,1.728-3.359L8.251-37.449c2.377-1.785-1.596,3.277,4.243-1.884
			C11.05-38.433,9.4-37.252,8.251-37.449z"/>
		<polygon points="1.284,-11.075 5.78,-9.581 6.108,-10.139 3.331,-11.507 		"/>
		<polygon points="75.001,-10.949 73.283,-11.075 77.78,-9.581 78.108,-10.139 75.33,-11.507 		"/>
		<polygon points="3.002,-82.948 1.284,-83.075 5.78,-81.581 6.108,-82.138 3.331,-83.507 		"/>
		<polygon points="75.001,-82.948 73.283,-83.075 77.78,-81.581 78.108,-82.138 75.33,-83.507 		"/>
		<path d="M69.251-85.948l-3,5c-3.3,1.699,6.8-7.201-1-4L69.251-85.948z"/>
		<path d="M59.763-82.83c3.121-1.032,4.015,0.009,2.816,2.05l1.313-0.82l-1.614,0.246c0.477-0.754,1.378-1.696,0.714-1.967
			L59.763-82.83z"/>
		<path d="M55.422-11.959c0.22-1.078,0.283-2.392,1.579-2.74l-0.825,0.546l-1.561-2.358l0.826-0.547l2.34,3.54
			c-0.822-0.475-1.473,0.21-2.159,0.58L55.422-11.959z"/>
		<polygon points="17.907,-13.426 17.172,-11.468 20.407,-11.923 		"/>
		<path d="M73.251-53.699l2-2.999l1,1C74.851-56.1,74.251-54.399,73.251-53.699z"/>
		<path d="M75.251-78.073c0,2.5,0.2-1-1-1l-1,1l1-2C73.951-79.174,74.751-78.674,75.251-78.073z"/>
		<path d="M78.074-46.945c-1.349-0.91-4.387-0.287-3.849-3.191c0.255,1.07,0.364,2.381,1.671,2.685
			c0.945,0.082,1.245-0.812,1.712-1.438l1.672,2.685L78.074-46.945z"/>
		<path d="M6.074-46.945c-1.349-0.91-4.387-0.287-3.849-3.191c0.257,1.07,0.364,2.381,1.671,2.685
			c0.945,0.082,1.245-0.812,1.712-1.438l1.672,2.685L6.074-46.945z"/>
		<polygon points="79.646,-43.374 74.655,-41.143 74.169,-41.446 78.523,-41.883 		"/>
		<polygon points="2.655,-41.143 2.17,-41.446 6.523,-41.883 6.545,-42.804 8.722,-43.021 7.646,-43.374 		"/>
		<polygon points="58.494,-58.219 60.53,-59.706 57.488,-58.809 		"/>
		<polygon points="59.28,-27.706 59.314,-29.992 58.023,-29.796 		"/>
		<path d="M51.701-76.999l-0.7-0.699l1-1l0.7,0.699L51.701-76.999l2,2c-0.5,0.6-1.3,1.1-1,2h-1
			C51.501-74.399,54.101-75.899,51.701-76.999h-1l2-6C52.401-80.999,49.001-78.999,51.701-76.999z"/>
		<path d="M49.701-63.749L47.692-63.7l-0.741,0.951c0.1-1.8-2-2.699-3-4l-1,1c-0.2-1.4,3.899-2.9,0-4h-1l1-3
			C43.551-69.35,44.251-64.1,49.701-63.749z"/>
		<path d="M56.251-72.448c-4.05,0.771-5.03,5.932-8.387,5.761l-0.972-0.195l0.279-1.386l0.971,0.195l0.472,1.136
			c2.909,1.308,2.36-2.409,3.61-3.601l-1.388-0.278L56.251-72.448z"/>
		<path d="M48.201-59.749l4.454-0.832c-1.2,2.7,2.445,2.633,3.546,3.832l-1-1l-1,1c1.5-2.101-6.921-4.207-9.421-4.207l0.5-1.75
			C44.979-61.806,47.701-60.35,48.201-59.749z"/>
		<path d="M32.701-58.999c-2.5-1.101-3.3,2-5,3c0.3-0.9-0.5-1.4-1-2c-0.9-0.3-1.4,0.5-2,1c-0.4,1.399,1.3,2,2,3l-3-2
			c0.5-0.601,1.3-1.101,1-2c4.3,1.899,5.1-1.601,9-2L32.701-58.999z"/>
		<path d="M46.701-58.999c-1.9,0.6-3.4,3.2-5,0l-1,1c-0.601-0.5-1.101-1.3-2-1c-0.5,0.6-1.3,1.1-1,2l-1-1
			C37.001-61.299,43.401-55.698,46.701-58.999z"/>
		<path d="M32.701-49.999c0.3-0.9-0.5-1.4-1-2l-4,2l4,4c0.5-0.601,1.3-1.101,1-2l1,1c-0.9-0.3-1.4,0.5-2,1c0,2.6,2.5,1.6,3,4
			c-3.601-1.3-2.5-7.101-7-8c1.2-1.601,5.3-0.601,4-4L32.701-49.999z"/>
		<path d="M49.701-47.499c3.8,0.399,0.5-5.601,5-4L49.701-47.499z"/>
		<path d="M37.35-40.815l-0.744,1.205l2.407,1.484l-0.741,1.204l1.203,0.743l-0.974,0.229c1.027,1.299-2.279-3.981-2.586-6.581
			C35.831-41.586,36.725-41.283,37.35-40.815z"/>
		<path d="M39.701-45.999c1.3-2,3.5-0.5,5,0l-1,1c-1.2-2.101-3.3-2.3-5-1v-1L39.701-45.999z"/>
		<path d="M50.642-41.218c-1.2-2.956-2.111,1.512-5.099,0.108c-1.044,0.728,1.241-0.693,6.433-1.901
			C51.379-42.508,50.503-42.155,50.642-41.218z"/>
		<path d="M40.701-38.499l1,1h-2l2-3C42.001-39.6,41.201-39.1,40.701-38.499z"/>
		<path d="M37.701-33.999c1.7-1.3-4.2-2.7-5-6l-4,3l3-2l-1-1C34.501-39.499,35.801-37.1,37.701-33.999z"/>
		<path d="M50.701-36.499c0.3-0.9-0.5-1.4-1-2l1,1l1-2L50.701-36.499z"/>
		<path d="M53.701-33.999c1-0.7,1.6-2.4,3-2L53.701-33.999c0.399-1.9-3,1.899-1-3C52.701-35.899,52.501-34.6,53.701-33.999z"/>
		<path d="M27.701-33.999c0,1.1,0.2,2.399-1,3l2,2c2.1-1.2,2.3-3.3,1-5l1,3c-1.601,3.2-3.101,0.6-5,0c-1.2,1.7,5.1-2.9,0-3
			c-2.4,2.1,0.8,0.1,0-1C26.301-34.499,26.801-33.699,27.701-33.999z"/>
		<path d="M46.451-27.249c-1.601-0.7-0.7-3.4-3-3l1-1L46.451-27.249z"/>
		<path d="M49.201-29.249c-2,2.5,1.3-0.3-1-1c1.399,0.399,2-1.3,3-2l-2-1h2L49.201-29.249z"/>
		<path d="M34.901-26.299c1.3,1,2.199,3.1,4,3c-3,1.8,1.399,3,1,5c-0.9,0.3-1.4-0.5-2-1c1.3-1.101,0-3.601-1-5L34.901-26.299l-2,3
			l3-4L34.901-26.299z"/>
		<path d="M40.701-25.249c-4.366,5.125,4.466-2.875-1-1.75l5,0.75L40.701-25.249z"/>
		<path d="M41.701-22.499c3.3,2.7-2.3,5.3,1,8h-2C41.001-17.199,44.401-19.799,41.701-22.499h-1l6-3L41.701-22.499z"/>
		<path d="M36.201-21.999c-2.7,2.2-1.2,6.2-5,8c-1.4,1.7,2.8-2.2,3-4C34.201-19.6,33.801-22.299,36.201-21.999z"/>
		<path d="M53.999-19.258c-1.587-1.101-2.629,0.929-3.875,1.407c-1.119,3.168-0.39,4.606,2.527,5.534
			c0.913-0.255,0.881-1.199,1.099-1.949c-0.255-0.913-1.197-0.881-1.947-1.097c0.914-0.256,0.881-1.199,1.099-1.949
			c-0.626,2.112,1.684,3.569,0.31,5.824l-4.455-3.026c1.385-0.452,0.932-2.196,1.368-3.337l-3.046,0.85l6.361-3.086L53.999-19.258z"
			/>
		<path d="M49.876-10.824l-2,2.999c0.4,2.1-0.6-3.099-3-3.999l3,2.999L49.876-10.824z"/>
		<path d="M45.701-33.999c-0.601-0.5-1.101-1.3-2-1c1.899-1.2-1.9-3.8,0-5C42.401-38.399,45.001-35.999,45.701-33.999z"/>
		<path d="M48.367-57.629c-2.433,3.33,1.468,6.821-1.101,8.988l-0.841,0.521l-0.744-1.204l0.842-0.52l0.743,1.203
			c3.02-1.032,0.08-3.372,0.179-5.095l-1.203,0.742L48.367-57.629z"/>
		<path d="M35.046-73.067l-0.478,1.33l2.661,0.958l-0.479,1.331l1.331,0.478l-0.904,0.427c1.272,1.059-3.052-3.427-3.889-5.907
			C33.401-73.509,34.338-73.396,35.046-73.067z"/>
		<polygon points="40.751,-76.448 36.751,-79.448 40.751,-81.448 37.751,-79.448 		"/>
		<path d="M54.371-31.119c-0.618,0.719-0.067,1.486,0.167,2.23c1.074-1.829,5.278-2.592,2.275-5.553
			c0.946,0.064,1.105,0.995,1.472,1.685c-2.397,0.314-1.455,5.132-4.672,3.489L54.371-31.119z"/>
		<path d="M55.001-26.949l1-1l1,1l-1,1c1.5,2.3-2.8-5-5-1c-2.3-0.3,2,0.8,2-1l-2-1C52.401-28.449,53.901-28.249,55.001-26.949z"/>
		<polygon points="51.251,-53.699 50.251,-52.699 51.251,-55.698 52.251,-55.698 52.251,-53.699 		"/>
		<path d="M28.001-73.698c0.1,1.799-2,2.699-3,4l2-2l-1-1C24.101-71.999,27.101-73.899,28.001-73.698z"/>
		<polygon points="29.001,-64.698 26.001,-64.698 29.001,-65.698 30.001,-65.698 30.001,-64.698 		"/>
		<path d="M36.251-62.198c0.5-0.601,1.3-1.101,1-2c-1.1-2.401-2.6,0.199-4,0c-2.5,0,1,0.199,1-1l-1-1c-0.9,2.299,5.9,0.399,6-3
			L36.251-62.198z"/>
		<path d="M45.001-53.699c-0.9-2.7-4-1.4-6,0c0.6,1.2,1.9,1,3,1c-0.9-0.3-1.4,0.5-2,1h1v1h-1c2.6,2.5-1.3-0.8,0-2
			c-1.8-2.999-3,1.4-5,1l5-3l-0.7,0.7l-1-1l0.7-0.699C41.001-52.6,43.401-58.1,45.001-53.699z"/>
		<path d="M41.429-72.095c-0.432-0.909-1.365-0.86-2.155-1.065v1.394c-1.436-1.221-2.298-3.735-4.307-3.522
			c0.86-0.271,0.646-1.213,0.717-1.966c-0.789,1.605,1.437,2.613,2.154,3.851C39.059-72.987,40.71-73.471,41.429-72.095z"/>
		<path d="M53.331-48.119c2.236,1.212,2.387,2.811,3.046,4.424l1.526,0.245c0.355,0.778,0.455,1.647,1.522,2.213
			c-3.762-1.064-1.325,2.867-2.039,4.26c0.812,1.836-0.303-2.408-2.54-3.03c0.763,0.908,1.677,0.86,2.542,1.063l0.515-4.506
			l-1.526-0.245l-1.014-2.785l-3.051-0.491L53.331-48.119z"/>
		<path d="M34.105-15.025c1.094-0.909,1.991-0.86,2.93-1.065l-1.615,0.246l2.328-2.213L34.105-15.025z"/>
		<path d="M29.905-25.776c-0.862,0.27-0.646,1.211-0.718,1.965"/>
		<path d="M38.805-11.376c0.837-0.065,2.039-0.434,1.916,0.328c1.005-2.073,5.564-2.023,6.571-4.096
			C45.579-13.088,41.645-12.612,38.805-11.376z"/>
		<path d="M49.251-21.449c-0.838,0.065-2.039,0.434-1.915-0.327c0.428-1.181,2.196-2.131,3.643-3.032l-0.3-0.573l-1.015,1.394
			l0.709-0.976l-3.229,0.49l-0.711,0.976c0.838-0.064,2.039-0.435,1.916,0.328l-2.027,2.786l-1.615,0.245l-1.014,1.393
			c2.967-2.989,6.158-1.556,7.886-4.915C50.941-22.883,50.523-22.014,49.251-21.449z"/>
		<path d="M27.934-85.804c-1.45,1.807-1.226,3.603-3.104,5.454l-1.397,0.846l0.979-0.592l0.402-1.675l-0.978,0.592
			c0.057,1.254-1.214,2.809-2.204,4.195l7.298-7.992L27.934-85.804z"/>
		<path d="M26.699-37.159l-1.698-0.29l-1.874-2.676l-1.697-0.29l-0.938-1.338l-0.38,0.523c-1.71-1.587,5.302,4.264,8.841,6.223
			C27.653-35.582,27.3-36.408,26.699-37.159z"/>
		<path d="M29.905-25.776c-0.79-0.066-1.724-0.435-2.154,0.327c0.503-2.072-4.093-2.022-3.59-4.096
			C24.376-27.488,27.967-27.014,29.905-25.776z"/>
		<path d="M32.424-36.119c1.794,1.212,1.363,2.811,1.436,4.424l1.436,0.245c0.072,0.778-0.143,1.647,0.718,2.213
			c-3.374-1.064-2.368,2.867-3.589,4.26c0.144,1.836,0.574-2.408-1.437-3.03c0.431,0.908,1.363,0.86,2.154,1.063l2.153-4.506
			l-1.436-0.245v-2.785l-2.872-0.491L32.424-36.119z"/>
		<path d="M43.438-34.024c-2.586-1.695-3.878,1.147-4.309,3.441c1.292,0.639,2.082-0.271,2.872-0.901
			c-0.862,0.271-0.646,1.213-0.718,1.967l0.718-0.574l0.718,0.819l-0.718,0.573c3.662,0.558-1.508,0.091-1.437-1.638
			c-3.446-1.425-1.148,2.867-2.871,3.687l1.436-5.325v0.975l-1.436-0.245v-0.975C41.354-30.829,39.129-36.711,43.438-34.024z"/>
		<path d="M30.251-21.449l1,1h-2l2-3C31.551-22.549,30.751-22.049,30.251-21.449z"/>
		<path d="M22.676-13.737l3.267-3.344c0.745,3.002,3.219,1.573,4.82,2.106l-1.399-0.403l-0.155,1.384
			c-0.14-2.611-5.909-0.135-8.709,0.343l0.155-1.385C20.98-14.084,21.914-14.029,22.676-13.737z"/>
		<path d="M30.242-17.371c0.354-3.529-0.186,2.195,2.213-0.315l-3.036,0.885L30.242-17.371z"/>
		<path d="M25.836-42.938c1.125,0.412,2.526,0.73,2.714,1.973l2.755-0.946c-0.48-2.229-2.558-3.186-4.758-2.722l3.424,0.277
			c2.705,2.556-0.488,2.853-1.776,4.237c1.312,1.654-1.154-5.408-3.069-1.124c1.296,2.821,0.388-0.641-1.021-0.375
			C24.827-41.938,25.823-42.062,25.836-42.938z"/>
		<path d="M21.653-60.229l2.872-3.688c1.076,2.9,3.375,1.204,5.025,1.557l-1.436-0.246v1.393c-0.432-2.581-5.889,0.525-8.616,1.312
			v-1.394C19.93-60.385,20.863-60.435,21.653-60.229z"/>
		<path d="M32.46-62.288l0.782,1.33l2.195-1.384l0.781,1.329l1.098-0.691l-0.157,1.01c1.521-0.229-4.34-0.088-6.735-1.221
			C31.222-61.323,31.818-61.975,32.46-62.288z"/>
		<polygon points="34.392,-56.541 34.98,-57.803 35.001,-54.449 34.108,-54.233 33.499,-56.325 		"/>
		<path d="M53.783-42.772c-0.072-0.753,0.145-1.695-0.719-1.966l-1.436,0.245v-1.393l-1.436,1.638
			c2.369-1.031,4.021,0.01,4.308,2.049l0.718-0.818L53.783-42.772z"/>
		<path d="M44.662-48.622c-0.432-0.908-1.365-0.86-2.154-1.064l1.437,0.245l-0.719-2.212L44.662-48.622z"/>
		<path d="M46.133-43.809V-45.2l1.436,0.245v1.393c2.729,1.024-5.601-2.489-4.309,2.05c-1.867,1.072,2.012-0.492,0.719-1.967
			l-2.154,0.328C43.188-43.545,44.409-44.241,46.133-43.809z"/>
		<path d="M52.501-61.948c-1.2-0.601-1-1.901-1-3c1.4,0.399,2-1.301,3-2l-1-2C57.001-66.249,50.201-65.35,52.501-61.948z"/>
		<path d="M31.334-74.688c-0.733-0.188-1.697-0.118-1.833-1.011l0.464-1.383l-1.378-0.213l1.839-1.168
			c-1.382,2.183-0.606,3.975,1.365,4.57l-0.919,0.584L31.334-74.688z"/>
		<path d="M38.967-75.191c-0.487,0.579-1.31,1.087-0.897,1.891l1.182,0.853l-0.992,0.977l2.175-0.127
			c-2.397-0.964-2.814-2.871-1.562-4.506l-1.087,0.062L38.967-75.191z"/>
		<path d="M59.655-68.062l0.718,0.819c-1.292-0.639-2.082,0.27-2.872,0.901v1.394c2.011-1.468-2.513,2.842-3.59,1.474
			C58.004-62.565,56.209-67.397,59.655-68.062z"/>
		<path d="M49.155-56.831c0.388-0.64,1.077-1.042,2.062-1.231l0.719,0.819c-1.293-0.639-2.082,0.27-2.873,0.901L49.155-56.831z"/>
		<path d="M32.751-68.198c-0.201-1.147-1.624-2.885-0.505-3.36L32.751-68.198c-1.728-1.786,0.403,3.276-3.558-1.885
			C30.311-69.183,31.53-68.002,32.751-68.198z"/>
		<path d="M27.704-67.632c-0.203-0.754-0.761-1.696,0.002-1.967C27.909-68.845,28.467-67.903,27.704-67.632l-4.576-0.737
			l1.014,2.786l-1.522-2.212C24.348-68.172,25.163-68.893,27.704-67.632z"/>
		<path d="M42.271-60.739c2.343-1.853-4.967-5.287-1.241-7.217L42.271-60.739z"/>
		<path d="M41.911-79.971c1.118,0.9,2.541,1.851,2.539,3.03l3.051,0.492c-0.15-2.188-2.182-4.022-4.571-4.67l3.558,1.884
			c2.438,3.538-0.97,2.27-2.546,2.867c1.115,2.081-0.35-5.3-3.05-2.456c0.913,3.096,0.51-0.378-1.016-0.819
			C40.689-79.578,41.758-79.209,41.911-79.971z"/>
		<path d="M53.301-22.271c2.146,4.121,7.68,4.745,8.574,7.992l0.1,0.909l-1.602-0.559l-0.1-0.909l1.602,0.559
			c0.488-2.576-3.387-2.807-5.088-4.275l0.143,1.298L53.301-22.271z"/>
		<path d="M47.501-33.449c-0.601,1.049,2.616-4.675,0.263-6.061C50.117-38.124,47.319-35.413,47.501-33.449z"/>
		<path d="M45.563-71.724c0.814,0.065,1.882,0.435,2.036-0.327c0.001-1.181-1.422-2.13-2.54-3.031l0.51-0.573l0.507,1.393
			l-0.354-0.975l3.05,0.49l0.355,0.976c-0.814-0.065-1.882-0.435-2.035,0.327l1.014,2.786l1.525,0.245l0.507,1.393
			c-1.878-2.989-5.592-1.556-6.097-4.914C44.396-73.157,44.497-72.288,45.563-71.724z"/>
		<path d="M32.322-78.134l-0.188-3.688c-3.188,2.9-4.25,1.203-6.158,1.555l1.614-0.244l-1.014,1.393
			c2.309-2.58,5.505,0.525,7.661,1.312l1.014-1.393C34.158-78.29,33.262-78.339,32.322-78.134z"/>
		<polygon points="25.898,-76.875 26.8,-75.154 27.212,-77.694 26.912,-78.267 25.597,-77.448 		"/>
		<path d="M21.631-4.984l7.298-7.991l-0.995-0.828c-1.45,1.807-1.226,3.602-3.104,5.453L21.631-4.984z"/>
		<polygon points="50.108,-19.983 50.822,-21.951 47.592,-21.459 		"/>
		<path d="M29.751-8.7c0.755-0.238,1.759-0.253,1.868-1.121c-0.361-0.691-0.493-1.576-1.504-1.772l1.421-0.318
			c3.085,1.841-5.232,4.266-3.487,8.517L29.751-8.7z"/>
		<polygon points="35.001,-11.199 35.715,-13.165 32.485,-12.674 		"/>
		<path d="M36.205-13.407c4.061-1.236,0.072,2.466,0.188,3.687c-0.912,1.253,0.854-1.367,2.141-5.898
			C37.896-14.841,37.479-13.972,36.205-13.407z"/>
		<path d="M52.801-23.085c0.837-0.065,2.039-0.434,1.916,0.328c1.005-2.073,5.564-2.022,6.57-4.097
			C59.575-24.797,55.641-24.321,52.801-23.085z"/>
		<path d="M35.12-48.184l0.055,1.632l3.792,3.512l0.054,1.632l0.604-0.23l-1.318-2.803c-0.347,0.628-1.176-0.378-1.869-0.939
			c-0.773-1.191-0.619-2.078-0.712-3.034c-0.692-0.563-1.522-1.568-1.87-0.939L35.12-48.184z"/>
		<polygon points="38.251,-49.362 38.251,-47.949 36.837,-50.778 37.544,-51.484 38.958,-50.07 		"/>
		<polygon points="29.119,-53.964 28.358,-52.418 31.43,-56.026 31.035,-56.541 28.726,-54.478 		"/>
		<path d="M49.876-82.823l-2,3c0.4,2.099-0.6-3.101-3-4l3,3L49.876-82.823z"/>
		<path d="M36.205-85.407c4.061-1.236,0.072,2.466,0.188,3.688c-0.912,1.253,0.854-1.368,2.141-5.899
			C37.896-86.841,37.479-85.972,36.205-85.407z"/>
		<polygon points="45.557,-16.142 44.77,-15.664 43.411,-17.38 43.696,-16.283 		"/>
		<polygon points="48.244,-11.919 48.53,-12.706 47.238,-12.509 		"/>
		<path d="M39.367-63.262c0.604,0.444,0.941,1.166,1.043,2.165l-0.88,0.641c0.751-1.23-0.084-2.098-0.643-2.94L39.367-63.262z"/>
		<path d="M41.53-74.706c-2.7-2.3,1.699,1.4,1-2l-1,3V-74.706z"/>
		<polygon points="50.34,-62.404 50.837,-62.022 50.296,-61.405 49.297,-61.45 49.342,-62.448 		"/>
		<polygon points="46.34,-38.154 46.837,-37.772 46.296,-37.155 45.297,-37.2 45.342,-38.199 		"/>
		<polygon points="46.285,-31.711 46.204,-32.333 47.023,-32.386 47.698,-31.649 46.96,-30.974 		"/>
		<path d="M52.451-5l2-5.999C54.151-9,50.751-7,53.451-5H52.451z"/>
	</g>
</pattern>
<g>
	<path fill="#E1DABC" d="M123.391,104.578l2.805-5.806l13.645-9.676l18.383-8.708l8.708-4.837l16.45-5.805c0,0,1-5.742,1.002-5.743
		c4.004-2.246,8.339-7.841,12.766-8.721c4.781-0.95,1.188-0.806,5.748,1.471c4.549,2.271,7.568,4.504,12.885,5.516
		c13.717,2.61,29.614,2.681,43.573,2.164c15.333-0.568,29.448-5.412,44.099-9.197c9.123-2.357,13.527,0.735,17.256-8.583
		l10.708,0.903l5.74,2.805l2,6.805l4.838,1.451l17.416,5.322l19.352,8.224l24.189,13.062l6.773,8.708l4.837,10.644l9.677,41.122
		l4.354,23.222l2.902,15.965l4.354,24.188l2.903,13.547l4.354,22.254l2.902,16.448l7.257,45.476l2.902,45.476l1.935,18.384v18.384
		l1.452,22.254l-0.763,46.443l-0.721,19.351l-1.937,11.61l-1.936,8.709l-0.934,5.806l-1.937,10.642l-5.806,0.968h-10.642h-13.546
		h-9.677h-10.642l-14.515-0.968l-10.644-1.548l-6.771,1l-5.806-0.581l1.673,9.593l-3.66,8.363l-0.598,6.962l4.388,11.525
		l-0.13,1.839l-4.015-0.667l-5.114-2l-9.518-2.278l-16.042-0.76l-18.946-0.897l-21.537-0.05l-25.991,2.653l-17.212-0.157
		l-10.449-1.001l-21.461-0.41l-20.942-2.455l-21.472-2.762l-16.699-1.346l-19.164-4.411l-11.133-4.325l-1.451-8.062l-5.32-2.42
		l-13.547-3.869l-13.545-0.969H77.914l-14.308-1.148l-6.954-0.285l-12.602-0.729l-3.871,0.229V497.41v-20.319v-24.189V434.52
		l4.354-31.931l1.451-18.384l4.839-21.287l-0.097-14.514l2.936-12.577l3.934-14.797l2.902-13.264l3.872-12.577l3.869-14.514
		l2.419-11.611l2.289-19.352l2.967-9.708l3.354-16.416l5.422-19.835l3.385-13.062l4.838-12.579l1.839-10.643l5.19-18.385
		l5.387-9.676l5.354-13.545L123.391,104.578z"/>
</g>
<g opacity="0.76">
	<linearGradient id="SVGID_1_" gradientUnits="userSpaceOnUse" x1="41.2373" y1="303.4365" x2="461.1602" y2="303.4365">
		<stop  offset="0.3374" style="stop-color:#ECEBE1"/>
		<stop  offset="0.7117" style="stop-color:#C5CABF"/>
		<stop  offset="0.9888" style="stop-color:#ECEBE1"/>
	</linearGradient>
	<path opacity="0.8" fill="url(#SVGID_1_)" d="M117.286,115.383l8.963-16.12l14.648-9.724l18.383-8.708l8.708-4.837l16.45-5.805
		c0,0,1-5.742,1.002-5.743c4.004-2.246,8.339-7.841,12.766-8.721c4.781-0.95,1.188-0.806,5.748,1.471
		c4.549,2.271,7.568,4.504,12.885,5.516c13.717,2.61,29.614,2.681,43.573,2.164c15.333-0.568,29.448-5.412,44.099-9.197
		c9.123-2.357,13.527,0.735,17.256-8.583l10.708,0.903l5.74,2.805l2,6.805l4.838,1.451l17.416,5.322l19.352,8.224l24.189,13.062
		l6.773,8.708l4.837,10.644l9.677,41.122l4.354,23.222l2.902,15.965l4.354,24.188l2.903,13.547l4.354,22.254l2.902,16.448
		l7.257,45.476l2.902,45.476l1.935,18.384v18.384l-0.548,22.254l0.237,46.443l-0.721,19.351l-1.937,11.61l-1.936,8.709l-1.934,5.806
		l-1.937,10.642l-3.806,0.968h-10.642h-13.546h-9.677h-10.642l-14.515-0.968l-10.644,1.452h-6.771l-5.806,2.419l6.803,5.275
		l-4.868,6.335l0.48,8.308l4.388,10.525l-5.352,7.775l-0.484,3.387l-15.48-5.806l-5.806-0.967l-16.449,1.934l-19.352-3.869
		l-16.071,0.967l-27.469,1.936l-18.383,0.967l-14.513-0.967h-19.354l-19.352,0.967l-22.252-5.806l-17.416-0.967l-18.386-8.708
		l-8.708-3.87l-1.451-13.062l-5.32-2.42l-13.547-3.869l-13.545-0.969H78.972l-17.416,0.969l-11.611,0.967l-4.836,2.902l-3.871-6.771
		v-15.481v-20.319v-24.189v-18.382l2.354-31.931l1.451-18.384l3.839-21.287l2.903-14.514l2.932-12.529l2.938-14.845l2.902-13.264
		l2.872-12.577l3.869-14.514l2.419-11.611l3.623-16.229l1.916-10.186l4.066-19.014l5.426-19.883l3.385-13.062l3.838-12.579
		l2.835-10.595l6.19-18.385l5.691-12.038l5.053-11.231L117.286,115.383z"/>
	<g>
		<path fill="#000001" d="M118.38,114.871c1.653-2.974,3.307-5.948,4.96-8.922c1.083-1.947,2.165-3.893,3.247-5.84
			c0.879-1.581,0.052-0.78,1.188-1.534c3.778-2.508,7.557-5.016,11.336-7.524c0.743-0.494,3.267-1.932,1.825-1.249
			c1.429-0.677,2.856-1.354,4.285-2.03c6.692-3.17,13.347-6.264,19.818-9.858c0.88-0.489,1.761-0.978,2.642-1.467
			c0.979-0.544-1.121,0.376,0.174-0.081c1.801-0.635,3.602-1.271,5.402-1.906c3.495-1.233,6.989-2.466,10.484-3.7
			c0.393-0.139,1.703-0.583,1.79-1.083c0.291-1.672,0.582-3.345,0.874-5.018c0.231-1.326,3.393-3.028,4.384-3.868
			c3.132-2.658,6.959-6.454,10.702-3.761c2.465,1.773,5.514,3.007,8.252,4.339c6.918,3.366,15.765,3.516,23.307,4.007
			c8.199,0.534,16.438,0.439,24.646,0.185c16.367-0.506,31.483-5.854,47.256-9.579c8.076-1.908,14.156-0.72,17.908-9.399
			c-0.709,0.38-1.417,0.759-2.125,1.139c2.824,0.238,5.649,0.476,8.474,0.714c2.815,0.237,4.815,1.45,7.378,2.702
			c1.589,0.777,2.037,5.397,2.526,7.06c0.21,0.715,4.748,1.439,5.873,1.783c5.411,1.654,11.301,2.839,16.507,5.051
			c5.837,2.48,11.673,4.96,17.51,7.441c4.472,1.9,8.676,4.48,12.947,6.787c3.166,1.709,6.331,3.418,9.497,5.128
			c1.408,0.761,3.027,1.312,4.02,2.587c3.95,5.079,6.776,9.226,9.426,15.057c1.725,3.795,2.532,7.428,3.491,11.506
			c10.315,43.837,18.031,88.178,26.679,132.369c1.87,9.558,3.342,19.204,4.876,28.82c1.76,11.027,4.6,22.396,5.312,33.545
			c0.841,13.174,1.682,26.348,2.522,39.521c0.569,8.923,2.286,17.84,2.286,26.77c0,23.564-0.5,47.099-0.38,70.668
			c0.054,10.52-0.206,20.942-0.599,31.458c-0.172,4.634-1.204,9.468-2.21,13.993c-1.113,5.01-3,9.968-3.911,14.977
			c-0.556,3.051-1.11,6.101-1.666,9.151c0.597-0.361,1.193-0.722,1.79-1.083c-7.361,1.872-15.662,0.912-23.259,0.912
			c-7.416,0-14.833,0-22.25,0c-6.729,0-13.48-1.457-20.163-0.546c-4.145,0.565-8.023,1.03-12.199,1.03
			c-3.131,0-5.514,1.351-8.417,2.561c-0.113,0.047-1.759,0.919-1.557,1.076c1.756,1.361,3.511,2.723,5.267,4.084
			c0.557,0.432,1.732,0.864,1.267,1.47c-0.892,1.161-1.784,2.322-2.676,3.483c-0.701,0.912-1.963,1.89-1.893,3.103
			c0.147,2.546,0.295,5.092,0.442,7.638c0.081,1.413,1.301,3.241,1.837,4.529c0.307,0.734,2.938,5.518,2.499,6.156
			c-2.583,3.752-5.124,6.557-5.769,11.063c0.709-0.38,1.417-0.76,2.125-1.139c-5.16-1.936-10.32-3.871-15.48-5.806
			c-5.201-1.951-11.356-0.323-16.604,0.294c-1.901,0.223-4.305,0.941-6.193,0.564c-3.366-0.673-6.733-1.347-10.1-2.02
			c-5.281-1.056-9.194-1.713-14.506-1.394c-22.674,1.364-45.31,4.242-67.99,2.73c-10.187-0.678-20.521-0.25-30.713,0.259
			c-5.024,0.251-9.463,0.84-14.299-0.422c-6.181-1.613-12.36-3.226-18.541-4.838c-5.13-1.338-11.566-0.653-16.872-0.947
			c-1.504-0.084-3.014-1.178-4.347-1.81c-3.629-1.719-7.258-3.438-10.888-5.156c-2.295-1.087-12.246-4.347-12.427-5.975
			c-0.366-3.292-0.731-6.583-1.098-9.875c-0.391-3.515-0.938-3.11-4.324-4.65c-13.225-6.015-28.045-5.465-42.218-5.465
			c-6.403,0-12.829,0.616-19.222,0.973c-3.609,0.2-7.218,0.599-10.82,0.898c-2.562,0.214-4.862,2.262-6.994,3.541
			c0.502-0.18,1.005-0.358,1.507-0.538c-1.29-2.257-2.581-4.514-3.871-6.771c-0.973-1.702,0-6.77,0-8.706c0-5.154,0-10.31,0-15.465
			c0-11.677,0-23.354,0-35.032c0-21.771,1.738-43.308,3.451-65.006c1.708-21.632,8.104-43.046,12.306-64.285
			c4.112-20.779,9.587-41.25,14.2-61.915c2.512-11.248,4.654-22.566,7.064-33.837c2.158-10.09,5.224-19.965,7.812-29.953
			c2.684-10.358,5.333-21.02,8.745-31.154c1.957-5.811,3.913-11.621,5.87-17.432c1.515-4.499,4.086-8.694,6.032-13.021
			C111.179,129.473,114.674,122.168,118.38,114.871c-0.015,0.029-1.879,0.417-2.188,1.023c-5.016,9.879-9.553,19.941-14.287,29.956
			c-4.646,9.828-7.632,20.52-10.438,31.006c-5.721,21.38-12.111,42.457-16.745,64.125c-2.096,9.799-4.14,19.624-6.184,29.435
			c-2.307,11.076-5.338,21.931-7.855,32.956c-4.645,20.34-9.349,40.831-13.052,61.362c-2.139,11.859-3.907,23.242-4.855,35.243
			c-0.889,11.265-1.68,22.537-2.511,33.806c-0.703,9.538-0.13,19.282-0.13,28.854c0,11.757,0,23.515,0,35.271c0,4,0,8.001,0,12.002
			c0,4.595,1.539,6.705,3.871,10.785c0.159,0.278,1.36-0.45,1.507-0.538c1.194-0.717,2.388-1.434,3.582-2.15
			c2.132-1.279-1.203-0.089,1.422-0.307c3.347-0.279,6.694-0.558,10.042-0.837c5.624-0.468,11.288-0.631,16.923-0.944
			c5.257-0.292,10.595-0.025,15.862-0.025c4.431,0,10.047-0.053,14.31,1.165c5.711,1.632,11.395,3.007,16.801,5.466
			c2.36,1.073,1.771,4.737,2.035,7.121c0.149,1.349-0.153,6.146,1.219,6.756c4.833,2.147,9.638,4.322,14.417,6.586
			c4.498,2.131,9.407,5.646,14.452,5.926c5.124,0.285,11.046-0.243,16.023,1.055c6.569,1.715,13.139,3.429,19.709,5.143
			c4.738,1.236,10.353,0.023,15.191-0.219c4.885-0.244,9.715-0.295,14.607-0.295c10.825,0,21.591,1.154,32.392,0.587
			c11.849-0.624,23.675-1.467,35.512-2.302c6.067-0.427,12.141-0.764,18.212-1.129c2.541-0.152,5.278,0.805,7.775,1.304
			c4.098,0.819,8.195,1.639,12.293,2.458c2.386,0.477,5.734-0.587,8.117-0.867c3.265-0.384,6.82-1.311,10.084-0.767
			c6.891,1.147,13.25,4.072,19.781,6.521c0.386,0.146,2.064-0.72,2.125-1.139c0.558-3.9,2.186-5.859,4.448-9.146
			c0.457-0.663,1.595-1.616,1.245-2.455c-0.803-1.926-1.604-3.851-2.407-5.775c-1.533-3.679-1.919-5.937-2.151-9.955
			c-0.225-3.885,2.27-5.831,4.617-8.887c0.066-0.049,0.098-0.112,0.092-0.19c-2.268-1.758-4.535-3.517-6.803-5.275
			c-0.519,0.359-1.038,0.718-1.557,1.076c4.236-1.765,5.586-2.277,9.966-2.277c3.563,0,7.069-0.675,10.597-1.156
			c7.107-0.97,14.703,0.672,21.917,0.672c7.418,0,14.836,0,22.254,0c7.034,0,14.236,0.715,21.072-1.023
			c0.39-0.1,1.703-0.609,1.79-1.083c1.9-10.443,5.025-20.478,6.773-30.961c1.525-9.146,1.731-18.535,1.685-27.808
			c-0.116-22.776,0.323-45.53,0.323-68.295c0-23.87-2.776-47.785-4.298-71.627c-1.289-20.194-5.399-40.341-8.915-60.262
			c-3.964-22.464-8.831-44.743-12.872-67.193c-3.722-20.678-7.577-41.236-12.39-61.688c-1.55-6.586-3.1-13.172-4.649-19.758
			c-1.014-4.306-3.386-8.302-5.21-12.316c-1.016-2.236-3.377-4.381-4.881-6.315c-1.308-1.681-1.925-2.483-3.728-3.456
			c-6.312-3.408-12.624-6.817-18.937-10.225c-8.058-4.351-16.852-8.286-25.604-10.961c-5.704-1.743-11.402-3.502-17.114-5.216
			c-1.575-0.472-2.25-0.354-2.714-1.931c-0.486-1.656-0.974-3.313-1.46-4.97c-0.504-1.712-4.443-2.682-5.985-3.435
			c-2.633-1.286-7.747-0.653-10.708-0.903c-0.552-0.046-1.897,0.614-2.125,1.139c-3.032,7.015-8.983,5.966-15.27,7.451
			c-8.19,1.935-16.213,4.521-24.417,6.418c-16.073,3.717-33.03,3.631-49.413,2.397c-7.712-0.581-15.408-1.432-22.337-5.055
			c-3.855-2.017-6.054-4.912-10.334-3.666c-4.35,1.267-7.584,4.255-10.979,7.135c-1.359,1.154-3.393,1.612-3.704,3.394
			c-0.292,1.672-0.583,3.345-0.875,5.018c0.597-0.361,1.193-0.722,1.79-1.083c-6.205,2.19-13.022,3.804-18.79,7.007
			c-7.45,4.138-14.915,7.644-22.878,11.417c-6.175,2.925-11.691,7.228-17.372,10.999c-1.976,1.312-2.892,4.247-4.002,6.244
			c-1.967,3.537-3.934,7.074-5.9,10.611C116.221,115.845,118.045,115.473,118.38,114.871z"/>
	</g>
</g>
<g>
	<g>
		<path fill="#19181C" d="M203.05,57.479c17.86,8.69,38.556,9.399,57.999,7.667c20.205-1.8,40.386-6.746,59.179-14.373
			c1.418-0.576,0.826-2.028-0.592-1.453c-17.985,7.299-37.114,11.91-56.405,13.947c-19.496,2.059-40.557,1.385-58.479-7.336
			C203.872,55.504,201.867,56.904,203.05,57.479L203.05,57.479z"/>
	</g>
</g>
<g opacity="0.76">
	<linearGradient id="SVGID_2_" gradientUnits="userSpaceOnUse" x1="41.46" y1="295.2539" x2="189.2939" y2="295.2539">
		<stop  offset="0" style="stop-color:#655E50"/>
		<stop  offset="2.932200e-04" style="stop-color:#746E61"/>
		<stop  offset="7.118000e-04" style="stop-color:#867F73"/>
		<stop  offset="0.0012" style="stop-color:#969187"/>
		<stop  offset="0.0018" style="stop-color:#A39F96"/>
		<stop  offset="0.0025" style="stop-color:#ADAAA2"/>
		<stop  offset="0.2585" style="stop-color:#EFDDCC"/>
		<stop  offset="0.3804" style="stop-color:#ECEBE1"/>
		<stop  offset="0.6626" style="stop-color:#C5CABF"/>
		<stop  offset="0.9888" style="stop-color:#ECEBE1"/>
	</linearGradient>
	<polyline opacity="0.85" fill="url(#SVGID_2_)" points="182.757,70.278 189.294,87.485 169.502,117.238 162.245,137.557 
		160.149,161.745 160.149,184 160.149,215.929 157.083,255.599 155.632,276.886 154.181,324.296 152.729,349.453 149.826,383.317 
		146.924,401.702 140.634,430.729 133.377,467.495 131.925,486.847 130.474,503.296 126.12,520.229 110.612,516.729 98.366,515.512 
		79.192,514.972 65.729,514.505 49.417,514.647 41.46,517.81 41.588,507.165 41.588,475.237 41.588,455.886 42.49,410.41 
		44.909,385.253 47.95,371.101 50.231,356.226 55.94,327.312 59.784,311.048 63.778,293.335 68.136,272.976 73.454,249.311 
		75.872,237.7 80.226,221.735 83.788,207.207 100.06,153.082 117.569,114.924 126.702,99.822 143.151,89.243 181.757,71.278 	"/>
	<g>
		<path fill="#19181C" d="M181.599,70.749c2.109,5.552,4.219,11.105,6.328,16.657c0.442,1.165,0.82-1.171,0.111-0.106
			c-0.491,0.739-0.983,1.478-1.475,2.217c-1.977,2.971-3.952,5.941-5.929,8.912c-3.8,5.712-7.6,11.425-11.399,17.138
			c-2.476,3.72-3.479,8.642-4.97,12.817c-1.545,4.326-3.149,8.114-3.543,12.657c-0.582,6.713-1.164,13.427-1.745,20.14
			c-0.799,9.214-0.056,18.723-0.056,27.988c0,11.163,0.353,22.3-0.463,32.845c-0.896,11.595-1.886,23.187-2.677,34.79
			c-1.537,22.539-2.138,45.063-2.828,67.646c-0.636,20.738-1.988,43.866-5.331,65.038c-3.619,22.925-9.08,45.586-13.576,68.362
			c-1.909,9.676-2.472,19.124-3.34,28.961c-0.466,5.274-0.146,11.322-1.462,16.44c-1.445,5.622-2.891,11.243-4.336,16.865
			c0.578-0.315,1.156-0.632,1.733-0.947c-6.818-1.54-13.534-3.341-20.492-4.032c-8.208-0.815-16.363-0.999-24.612-1.231
			c-5.982-0.169-11.969-0.559-17.953-0.506c-4.55,0.039-9.099,0.079-13.648,0.119c-2.882,0.025-6.244,2.208-8.895,3.262
			c0.548,0.283,1.097,0.566,1.646,0.849c0.252-20.96-0.269-41.939,0.147-62.896c0.267-13.423,0.533-26.846,0.799-40.269
			c0.184-9.219,1.545-19.311,2.486-29.099c0.479-4.99,2.386-9.881,3.147-14.846c0.774-5.052,1.381-10.159,2.371-15.173
			c2.192-11.107,4.177-22.271,6.781-33.29c5.18-21.916,9.8-43.952,14.737-65.923c4.301-19.137,8.68-38.297,14.331-57.093
			c4.201-13.975,8.402-27.95,12.604-41.925c2.697-8.972,7.903-18.504,12.107-27.665c2.941-6.412,5.668-12.782,9.315-18.813
			c1.457-2.41,2.915-4.82,4.372-7.23c0.463-0.765,0.926-1.53,1.389-2.296c0.553-0.915,0.422-0.605,0.348-0.558
			c3.991-2.567,7.983-5.134,11.975-7.701c12.425-7.991,28.486-13.989,42.577-20.546c1.434-0.667,0.609-2.731-0.836-2.059
			c-11.291,5.254-22.582,10.508-33.872,15.762c-3.324,1.547-6.201,3.121-9.291,5.107c-3.1,1.994-6.2,3.987-9.3,5.98
			c-1.322,0.851-2.777,1.483-3.602,2.846c-5.753,9.512-10.676,18.628-15.305,28.717c-4.093,8.919-9.17,17.817-12.003,27.239
			c-6.683,22.229-13.148,44.44-19.251,66.817c-6.056,22.207-10.649,44.812-15.468,67.323c-4.585,21.425-9.611,42.69-13.856,64.191
			c-2.011,10.187-3.438,20.41-5.623,30.579c-1.161,5.405-1.128,11.323-1.656,16.821c-0.354,3.691-0.818,7.369-0.892,11.078
			c-0.697,35.102-0.566,70.178-0.988,105.28c-0.01,0.821,1.029,1.094,1.646,0.849c2.81-1.116,6.726-3.06,8.435-3.075
			c4.499-0.039,8.998-0.078,13.497-0.117c5.759-0.051,11.525,0.35,17.282,0.512c7.586,0.213,15.14,0.29,22.691,1.04
			c7.398,0.735,14.304,2.396,21.814,4.092c0.76,0.172,1.526-0.141,1.733-0.947c1.429-5.557,2.857-11.112,4.285-16.669
			c1.318-5.128,1.027-11.135,1.493-16.415c0.847-9.597,1.329-18.892,3.192-28.334c4.488-22.737,9.98-45.374,13.593-68.259
			c6.937-43.935,5.298-89.451,8.273-133.099c0.785-11.528,1.764-23.046,2.654-34.567c0.818-10.582,0.555-21.161,0.555-31.775
			c0-9.672-0.773-20.633,0.001-29.571c0.567-6.546,1.135-13.092,1.702-19.639c0.432-4.984,1.918-8.651,3.743-13.761
			c1.609-4.505,2.747-9.046,5.091-12.569c4.232-6.363,8.466-12.727,12.699-19.09c1.143-1.718,6.623-7.515,5.743-9.831
			c-2.147-5.652-4.294-11.304-6.441-16.957C183.398,68.448,181.082,69.389,181.599,70.749L181.599,70.749z"/>
	</g>
</g>
<g>
	<linearGradient id="SVGID_3_" gradientUnits="userSpaceOnUse" x1="127.293" y1="559.8545" x2="368.7012" y2="559.8545">
		<stop  offset="0" style="stop-color:#655E50"/>
		<stop  offset="2.932200e-04" style="stop-color:#746E61"/>
		<stop  offset="7.118000e-04" style="stop-color:#867F73"/>
		<stop  offset="0.0012" style="stop-color:#969187"/>
		<stop  offset="0.0018" style="stop-color:#A39F96"/>
		<stop  offset="0.0025" style="stop-color:#ADAAA2"/>
		<stop  offset="0.0034" style="stop-color:#B3B1A9"/>
		<stop  offset="0.0061" style="stop-color:#B5B1AA"/>
		<stop  offset="0.2585" style="stop-color:#D7D4CB"/>
		<stop  offset="0.3804" style="stop-color:#ECEBE1"/>
		<stop  offset="0.6626" style="stop-color:#C5CABF"/>
		<stop  offset="0.9888" style="stop-color:#ECEBE1"/>
	</linearGradient>
	<path fill="url(#SVGID_3_)" d="M130.195,532.764l18.7,4.655l10.312,2.869l21.303,1.452l17.898,2.902l25.642,2.635l23.223,0.967
		c0,0,12.403-0.546,18.382-0.967c5.979-0.422,34.863-2.381,34.863-2.381l50.283,2.381l15.479,2.903l2.42,6.286l-1.82,17.749
		l-5.436,10.797l-10.644,2.902l-23.222-1.452l-24.189-0.968c0,0-27.091-0.482-33.864-1.45c-6.774-0.969-46.445-2.42-46.445-2.42
		l-39.667-3.386l-41.607-7.741l-9.426-5.07l-5.088-7.991l2.902-25.643"/>
	<g>
		<path fill="#19181C" d="M129.673,533.749c5.91,1.471,11.82,2.942,17.73,4.414c3.94,0.98,8.028,2.9,12.07,3.176
			c12.459,0.85,23.443,1.861,35.616,3.835c22.802,3.698,46.326,4.649,69.341,3.188c7.608-0.483,15.212-1.045,22.818-1.562
			c4.479-0.305,9.171-1.069,13.663-0.856c13.422,0.636,26.843,1.271,40.264,1.906c3.643,0.173,7.814,0.171,10.839,0.738
			c3.521,0.66,7.041,1.32,10.562,1.981c1.034,0.193,2.069,0.388,3.104,0.582c-0.751-0.142-0.456-0.244-0.095,0.694
			c0.417,1.084,0.834,2.167,1.251,3.25c1.608,4.176-0.427,12.182-0.975,17.524c-0.208,2.03-1.107,3.409-2.146,5.474
			c-0.808,1.605-1.616,3.211-2.425,4.816c-0.254,0.506-0.509,1.011-0.763,1.516c-0.236,0.471,1.573-0.596-0.041-0.155
			c-3.12,0.851-6.239,1.701-9.359,2.552c-1.275,0.348-4.604-0.206-6.412-0.319c-5.698-0.356-11.404-0.837-17.109-1.065
			c-10.848-0.434-21.689-0.873-32.541-1.153c-14.909-0.385-29.696-1.797-44.583-2.526c-10.88-0.534-21.787-0.69-32.642-1.617
			c-11.355-0.969-22.711-1.938-34.066-2.907c-9.23-0.788-21.047-3.926-30.944-5.767c-2.99-0.557-8.318-0.823-10.602-2.052
			c-2.582-1.389-5.164-2.777-7.745-4.166c-1.66-0.893-2.346-2.509-3.762-4.733c-1.25-1.964-2.28-2.768-2.113-4.24
			c0.312-2.75,0.622-5.501,0.934-8.251c0.612-5.411,1.226-10.823,1.838-16.235c0.165-1.464-2.23-1.196-2.367,0.01
			c-0.683,6.034-1.366,12.068-2.049,18.103c-0.277,2.448-0.554,4.896-0.831,7.345c-0.204,1.798,2.414,4.463,3.32,5.887
			c5.282,8.297,16.151,9.154,24.996,10.8c10.283,1.913,20.711,4.639,31.146,5.529c12.408,1.06,24.816,2.118,37.225,3.178
			c13.232,1.129,26.62,0.994,39.882,1.853c13.436,0.87,26.792,1.763,40.272,2.017c9.935,0.188,19.898,0.691,29.816,1.312
			c3.822,0.239,7.644,0.478,11.465,0.717c1.899,0.119,4.754,0.871,6.63,0.359c3.686-1.005,10.404-1.161,12.269-4.865
			c2.548-5.061,4.812-8.852,5.384-14.422c0.559-5.444,2.25-11.199,0.257-16.376c-0.621-1.616-0.771-3.81-2.654-4.163
			c-3.601-0.675-7.2-1.35-10.801-2.025c-3.428-0.643-6.566-0.892-10.054-1.057c-14.051-0.666-28.102-1.331-42.153-1.996
			c-11.573-0.548-23.537,1.319-35.086,2.117c-23.145,1.6-47.706,1.02-70.104-2.612c-11.886-1.928-23.338-3.192-35.354-4.012
			c-4.475-0.305-8.595-1.913-13.233-3.067c-6.025-1.5-12.051-3-18.076-4.5c-0.187-0.047-0.373-0.093-0.56-0.14
			C129.515,531.479,128.149,533.369,129.673,533.749L129.673,533.749z"/>
	</g>
</g>
<g>
	<pattern  id="SVGID_4_" xlink:href="#Mezzotint_1" patternTransform="matrix(1 0 0 1 -90.4092 -48.8809)">
	</pattern>
	<polygon fill="url(#SVGID_4_)" points="184.281,65.859 198.728,55.185 205.533,56.185 206.533,64.859 211.373,76.471 
		219.113,82.733 233.627,87.114 252.251,87.114 273.33,86.114 289.745,80.733 304.26,71.149 310.548,63.893 315.869,55.185 
		318.771,50.346 322.608,46.606 331.033,47.34 337.954,49.765 340.058,60.022 335.221,70.666 328.415,80.733 317.805,90.017 
		303.292,99.693 282.489,106.918 257.815,109.369 234.594,109.369 214.276,104.047 199.762,96.79 190.57,87.114 185.75,76.521 	"/>
	<g>
		<path fill="#19181C" d="M184.988,66.89c3.567-2.636,7.134-5.271,10.701-7.907c0.596-0.44,3.313-2.737,3.543-2.704
			c2.216,0.325,4.432,0.651,6.647,0.977c-0.405-0.516-0.811-1.031-1.216-1.546c0.637,5.523,1.289,9.488,3.406,14.57
			c0.84,2.016,1.479,5.161,2.987,6.812c2.011,2.203,4.84,3.947,7.157,5.821c3.765,3.045,10.505,3.687,15.083,5.069
			c1.455,0.439,3.061,0.222,4.565,0.222c4.007,0,8.015,0,12.022,0c10.205,0,20.61,0.108,30.317-3.074
			c5.114-1.677,9.564-2.912,14.014-5.85c4.916-3.246,9.731-5.921,13.582-10.365c4.538-5.237,7.868-11.122,11.429-17.059
			c0.87-1.451,2.401-2.574,3.605-3.747c0.987-0.962,3.745-0.115,5.018-0.004c3.774,0.329,6.863,1.474,10.452,2.731
			c-0.406-0.516-0.812-1.031-1.217-1.546c0.592,2.885,1.184,5.77,1.774,8.654c0.477,2.322-1.227,4.711-2.441,7.384
			c-2.334,5.137-5.447,9.513-8.612,14.195c-1.251,1.85-3.733,3.36-5.402,4.82c-1.795,1.571-3.543,3.467-5.532,4.793
			c-2.477,1.652-4.954,3.303-7.432,4.955c-1.971,1.313-4.659,3.806-6.742,4.529c-5.945,2.065-11.891,4.13-17.837,6.195
			c-4.317,1.5-8.756,1.592-13.309,2.044c-12.013,1.193-23.599,1.418-35.687,1.418c-5.659,0-12.319-2.785-18.017-4.278
			c-6.01-1.575-11.447-4.811-17.22-7.697c-2.829-1.415-8.984-8.426-10.273-11.261c-0.887-1.95-1.774-3.899-2.662-5.849
			c-0.297-0.654-0.595-1.308-0.893-1.962c-0.483-1.062-0.162-0.104-0.236-0.646c-0.471-3.418-0.942-6.835-1.413-10.253
			c-0.108-0.787-1.932-2.344-1.74-0.95c0.666,4.831,0.874,9.512,2.896,13.955c1.19,2.616,2.38,5.231,3.57,7.847
			c0.965,2.121,3.73,4.079,5.3,5.731c1.33,1.4,2.943,3.97,4.714,4.855c2.564,1.282,5.128,2.564,7.692,3.846
			c4.668,2.334,8.442,3.867,13.467,5.184c4.649,1.218,10.083,3.656,14.926,3.656c6.856,0,13.712,0,20.568,0
			c4.72,0,9.46-0.76,14.15-1.226c4.589-0.456,9.665-0.297,14.052-1.821c6.21-2.157,12.42-4.313,18.63-6.471
			c4.658-1.618,9.211-5.944,13.304-8.672c7.636-5.091,15.66-12.56,19.527-21.069c1.354-2.979,2.707-5.958,4.061-8.936
			c0.968-2.131,0.282-3.605-0.196-5.938c-0.407-1.986-0.406-5.186-1.595-6.919c-1.153-1.682-4.933-2.136-6.709-2.758
			c-2.188-0.767-4.625-0.689-6.923-0.889c-3.48-0.303-3.72,0.572-6.298,3.084c-3.399,3.313-5.872,9.325-8.33,13.347
			c-2.231,3.652-5.517,7.17-9.086,9.527c-4.498,2.97-9.088,6.995-14.148,8.654c-4.666,1.529-10.175,4.462-15.102,4.696
			c-6.551,0.311-13.102,0.622-19.652,0.932c-5.391,0.256-10.839,0.025-16.235,0.025c-5.405,0-10.795-2.421-16.063-4.011
			c-1.691-0.511-3.718-2.534-5.738-4.168c-0.64-0.518-1.28-1.035-1.92-1.553c-0.699-0.565-0.645-0.943-0.246,0.014
			c-0.482-1.158-0.965-2.316-1.448-3.474c-0.737-1.768-1.474-3.535-2.21-5.302c-0.214-0.513-1.051-2.937-0.98-2.322
			c-0.329-2.85-0.657-5.699-0.985-8.548c-0.064-0.557-0.602-1.456-1.216-1.546c-2.216-0.326-4.432-0.651-6.647-0.977
			c-0.989-0.146-2.209,1.266-2.929,1.797c-4.012,2.965-8.024,5.93-12.037,8.895C182.851,65.363,184.285,67.41,184.988,66.89z"/>
	</g>
</g>
<g>
	<linearGradient id="SVGID_5_" gradientUnits="userSpaceOnUse" x1="31.4277" y1="535.5791" x2="128.4375" y2="535.5791">
		<stop  offset="0" style="stop-color:#655E50"/>
		<stop  offset="2.932200e-04" style="stop-color:#746E61"/>
		<stop  offset="7.118000e-04" style="stop-color:#867F73"/>
		<stop  offset="0.0012" style="stop-color:#969187"/>
		<stop  offset="0.0018" style="stop-color:#A39F96"/>
		<stop  offset="0.0025" style="stop-color:#ADAAA2"/>
		<stop  offset="0.0034" style="stop-color:#B3B1A9"/>
		<stop  offset="0.0061" style="stop-color:#B5B1AA"/>
		<stop  offset="0.2585" style="stop-color:#D7D4CB"/>
		<stop  offset="0.3804" style="stop-color:#ECEBE1"/>
		<stop  offset="0.6626" style="stop-color:#C5CABF"/>
		<stop  offset="0.9888" style="stop-color:#ECEBE1"/>
	</linearGradient>
	<polyline fill="url(#SVGID_5_)" points="31.428,533.438 33.646,523.997 41.357,512.356 41.865,512.652 40.473,513.374 
		80.059,514.293 99.232,514.833 111.477,517.05 128.438,520.099 128.438,537.513 128.438,551.061 122.631,556.865 115.375,558.316 
		101.83,558.802 83.446,558.802 70.385,558.802 58.773,558.802 45.227,558.802 38.455,554.93 32.649,546.221 31.428,533.438 	"/>
	<g>
		<path d="M32.523,534.005c0.77-3.276,1.046-7.642,2.817-10.314c1.491-2.252,2.982-4.503,4.474-6.754
			c0.59-0.892,1.181-1.783,1.771-2.675c1.025-1.549,0.029-0.6-0.076-0.661c-0.135-0.641-0.269-1.281-0.402-1.922
			c-0.465,0.241-0.929,0.481-1.393,0.722c-1.114,0.577,0.144,2.059,0.989,2.078c13.902,0.322,27.808,0.587,41.708,0.979
			c8.52,0.24,16.197,0.337,24.318,1.807c7.213,1.306,14.43,2.6,21.645,3.896c-0.362-0.455-0.725-0.911-1.088-1.366
			c0,5.714,0,11.428,0,17.142c0,2.188,0,4.375,0,6.562c0,2.546,0.53,6.423-0.596,7.548c-1.803,1.802-3.942,4.619-5.704,4.971
			c-2.667,0.534-5.171,1.171-7.781,1.265c-5.365,0.192-10.717,0.416-16.084,0.416c-11.56,0-23.118,0-34.678,0
			c-5.566,0-11.133,0-16.698,0c-0.826,0-0.52-0.047-1.919-0.848c-1.505-0.86-3.01-1.721-4.515-2.581
			c-1.014-0.579,0.286,0.553-0.24-0.236c-0.365-0.548-0.731-1.097-1.097-1.646c-1.184-1.776-2.368-3.552-3.552-5.328
			c-0.979-1.468-0.818-2.611-1.076-5.312c-0.264-2.762-0.528-5.522-0.792-8.284c-0.122-1.283-2.406-1.618-2.256-0.051
			c0.398,4.17-0.35,10.584,2.019,14.136c1.734,2.603,3.47,5.204,5.204,7.807c1.229,1.844,4.97,3.035,6.847,4.108
			c1.559,0.891,3.766,0.443,5.488,0.443c3.05,0,6.099,0,9.147,0c5.097,0,10.194,0,15.291,0c11.029,0,22.074,0.204,33.097-0.191
			c5.528-0.198,10.328-0.69,15.748-1.774c1.774-0.355,4.23-4.054,5.473-5.296c1.544-1.543,0.975-3.564,0.975-5.68
			c0-8.854,0-17.707,0-26.562c0-0.604-0.468-1.255-1.088-1.366c-6.908-1.242-13.816-2.479-20.723-3.73
			c-8.24-1.491-15.982-1.781-24.378-2.018c-14.384-0.405-28.772-0.686-43.158-1.02c0.33,0.692,0.66,1.385,0.989,2.078
			c0.465-0.241,0.929-0.481,1.393-0.722c0.88-0.456,0.165-1.592-0.402-1.922c-0.169-0.099-0.338-0.197-0.508-0.296
			c-0.364-0.212-1.049-0.256-1.316,0.149c-2.428,3.665-4.856,7.33-7.284,10.995c-1.841,2.78-2.023,7.099-2.78,10.317
			C30.045,534.093,32.211,535.333,32.523,534.005L32.523,534.005z"/>
	</g>
</g>
<g>
	<linearGradient id="SVGID_6_" gradientUnits="userSpaceOnUse" x1="363.6191" y1="538.5508" x2="461.1367" y2="538.5508">
		<stop  offset="0" style="stop-color:#655E50"/>
		<stop  offset="2.932200e-04" style="stop-color:#746E61"/>
		<stop  offset="7.118000e-04" style="stop-color:#867F73"/>
		<stop  offset="0.0012" style="stop-color:#969187"/>
		<stop  offset="0.0018" style="stop-color:#A39F96"/>
		<stop  offset="0.0025" style="stop-color:#ADAAA2"/>
		<stop  offset="0.0034" style="stop-color:#B3B1A9"/>
		<stop  offset="0.0061" style="stop-color:#B5B1AA"/>
		<stop  offset="0.2585" style="stop-color:#D7D4CB"/>
		<stop  offset="0.3804" style="stop-color:#ECEBE1"/>
		<stop  offset="0.6626" style="stop-color:#C5CABF"/>
		<stop  offset="0.9888" style="stop-color:#ECEBE1"/>
	</linearGradient>
	<polyline fill="url(#SVGID_6_)" points="363.619,529.013 367.98,513.169 389.027,514.137 399.91,514.137 413.456,515.589 
		436.678,515.589 448.288,515.589 454.577,515.589 458.318,522.448 460.686,535.328 461.137,550.42 456.479,560.579 
		449.257,562.934 432.807,563.934 408.618,562.934 386.364,560.097 373.786,557.194 367.98,552.356 364.11,542.682 363.619,529.013 
			"/>
	<g>
		<path fill="#19181C" d="M364.72,529.558c0.684-2.481,1.367-4.964,2.051-7.446c0.492-1.789,0.984-3.577,1.477-5.366
			c0.179-0.647,0.356-1.296,0.535-1.944c0.365-1.327,0.418-0.549-0.427-0.588c6.349,0.292,12.696,0.584,19.045,0.875
			c4.365,0.201,8.837-0.338,13.17,0.127c4.973,0.533,10.008,1.415,15.014,1.415c11.459,0,22.918,0,34.377,0c1.585,0,3.17,0,4.755,0
			c-1.009,0-1.362-1.273-0.525,0.26c0.429,0.786,0.856,1.572,1.285,2.358c1.532,2.809,2.004,4.517,2.589,7.698
			c1.166,6.341,1.594,11.554,1.787,18.051c0.07,2.341,0.44,4.319-0.468,6.3c-1.319,2.879-2.64,5.757-3.959,8.636
			c0.301-0.656-2.253,0.52-3.137,0.808c-0.962,0.313-2.568,1.105-3.423,1.157c-3.207,0.194-6.415,0.39-9.622,0.585
			c-10.147,0.616-20.92,0.688-30.996-0.597c-11.7-1.492-22.462-2.914-33.726-5.513c-0.859-0.198-0.398-0.063-1.694-1.144
			c-1.29-1.075-2.581-2.15-3.871-3.226c-0.965-0.805,0.34,0.959-0.055-0.027c-0.244-0.609-0.487-1.219-0.731-1.828
			c-0.691-1.729-1.384-3.458-2.075-5.188c-1.845-4.611-1.16-10.531-1.344-15.649c-0.041-1.12-2.314-2.009-2.264-0.598
			c0.163,4.518-0.796,10.603,0.894,14.825c1.156,2.891,2.312,5.781,3.469,8.673c0.795,1.985,3.906,3.623,5.483,4.938
			c3.415,2.846,9.813,2.966,14.061,3.945c5.77,1.331,12.025,1.539,17.896,2.288c4.465,0.569,8.842,0.766,13.346,0.951
			c5.309,0.22,10.831,0.924,16.14,0.601c5.143-0.312,11.694,0.439,16.597-1.159c1.632-0.532,6.034-1.049,7.099-2.435
			c1.711-2.228,2.628-5.71,3.795-8.256c1.212-2.644,0.938-4.522,0.85-7.49c-0.1-3.337,0.245-7.033-0.359-10.324
			c-0.736-4.001-1.472-8.003-2.207-12.004c-0.509-2.772-2.663-5.456-4-7.907c-0.239-0.438-0.775-0.812-1.286-0.812
			c-6.396,0-12.791,0-19.187,0c-7.456,0-15.271,0.715-22.686-0.08c-14.866-1.594-29.78-1.652-44.725-2.34
			c-0.334-0.016-0.691,0.151-0.786,0.496c-1.454,5.281-2.908,10.562-4.361,15.844C362.214,529.574,364.379,530.8,364.72,529.558
			L364.72,529.558z"/>
	</g>
</g>
<g>
	<g>
		<path fill="#19181C" d="M326.39,81.5c3.49,4.321,6.98,8.643,10.471,12.964c2.263,2.802,4.526,5.604,6.789,8.406
			c0.968,1.198,2.481,2.527,3.118,3.946c2.337,5.206,4.674,10.411,7.011,15.617c2.46,5.479,3.525,12.059,5.212,17.825
			c2.55,8.724,1.526,18.71,2.29,27.755c1.129,13.358,2.258,26.717,3.387,40.075c0.89,10.536,2.812,21.022,4.303,31.486
			c1.452,10.194,2.353,20.385,3.293,30.643c2.03,22.151,1.351,44.287,1.351,66.521c0,11.474-1.508,22.897-2.545,34.318
			c-1.018,11.199-1.99,22.403-2.982,33.605c-1.743,19.683-1.905,39.76-1.905,59.521c0,9.879,0,19.757,0,29.636
			c0,6.603,1.042,13.275,1.627,19.849c0.026,0.289,0.778,0.26,0.942,0.264c27.943,0.564,55.887,1.129,83.829,1.694
			c0.953,0.019,2.333-0.695,0.607-0.73c-24.865-0.502-49.729-1.005-74.594-1.508c-3.073-0.062-6.146-0.124-9.22-0.186
			c1.407,0.028,0.866-0.41,0.734-1.894c-0.149-1.677-0.299-3.354-0.448-5.03c-0.312-3.496-0.623-6.992-0.935-10.489
			c-1.024-11.501-0.052-23.482-0.052-35.032c0-20.039,0.489-40.325,2.259-60.291c2.021-22.814,5.174-45.798,5.174-68.705
			c0-11.686,0.045-23.372,0.093-35.058c0.042-10.649-0.919-20.964-1.893-31.586c-1.852-20.2-5.704-40.155-7.411-60.348
			c-1.07-12.675-2.142-25.351-3.212-38.025c-0.815-9.645-0.124-19.585-2.851-28.911c-1.503-5.142-2.478-10.962-4.673-15.853
			c-2.337-5.206-4.674-10.411-7.011-15.617c-0.53-1.181-1.861-2.329-2.665-3.324c-2.412-2.986-4.824-5.973-7.236-8.959
			c-3.49-4.321-6.98-8.643-10.471-12.964C328.384,80.63,326.127,81.175,326.39,81.5L326.39,81.5z"/>
	</g>
</g>
<g opacity="0.46">
	<pattern  id="SVGID_7_" xlink:href="#Mezzotint_1" patternTransform="matrix(1 0 0 1 -90.4092 -48.8809)"  opacity="0.46">
	</pattern>
	<polygon fill="url(#SVGID_7_)" points="32.242,525.903 45.814,516.038 64.739,513.857 78.204,513.325 97.377,513.865 
		109.62,516.082 126.58,519.131 126.58,536.545 126.58,550.093 120.775,555.897 113.518,555.897 99.975,557.833 81.588,557.833 
		68.526,557.833 56.915,557.833 43.371,557.833 36.597,553.962 32.242,545.254 	"/>
</g>
<g opacity="0.46">
	<pattern  id="SVGID_8_" xlink:href="#Mezzotint_1" patternTransform="matrix(1 0 0 1 -90.4092 -48.8809)"  opacity="0.46">
	</pattern>
	<path fill="url(#SVGID_8_)" d="M137.006,532.764l12.895,4.655l10.312,2.869l21.303,1.452l17.898,2.902l25.643,2.635l23.221,0.967
		c0,0,12.403-0.546,18.382-0.967c5.981-0.422,34.864-2.381,34.864-2.381l50.283,2.381l16.931,5.806l-1.936,7.738l1.451,15.482
		l-5.902,8.709h-19.252l-14.514,2.902l-24.191-3.87c0,0-27.091,0.968-33.863,0c-6.773-0.969-46.444-3.872-46.444-3.872
		l-39.668-3.386l-38.704-6.289l-15.965-2.902l1.452-35.802"/>
</g>
<g opacity="0.91">
	<pattern  id="SVGID_9_" xlink:href="#Mezzotint_1" patternTransform="matrix(1 0 0 1 -90.4092 -48.8809)"  opacity="0.91">
	</pattern>
	<polygon fill="url(#SVGID_9_)" points="34.42,521.548 43.635,516.038 62.562,513.857 76.023,514.325 95.197,514.865 
		107.441,516.082 124.402,519.131 128.756,536.545 124.402,550.093 118.596,555.897 111.34,555.897 97.794,557.833 79.411,557.833 
		66.35,557.833 54.738,557.833 41.191,557.833 37.322,553.962 34.42,540.898 	"/>
</g>
<g opacity="0.9">
	<pattern  id="SVGID_10_" xlink:href="#Mezzotint_1" patternTransform="matrix(1 0 0 1 -90.4092 -48.8809)"  opacity="0.9">
	</pattern>
	<polyline fill="url(#SVGID_10_)" points="367.393,515.229 371.264,511.358 392.31,515.229 403.193,513.776 418.189,513.776 
		439.961,515.229 451.57,518.132 451.57,518.132 461.517,534.579 459.738,549.334 452.539,564.573 452.539,564.573 436.089,564.573 
		411.902,563.121 389.646,559.737 377.068,556.835 371.264,551.996 364.49,542.321 365.942,515.229 	"/>
</g>
<g opacity="0.9">
	<pattern  id="SVGID_11_" xlink:href="#Mezzotint_1" patternTransform="matrix(1 0 0 1 -90.4092 -48.8809)"  opacity="0.9">
	</pattern>
	<path fill="url(#SVGID_11_)" d="M132.679,531.711l12.896,4.655l10.312,2.869l21.304,1.451l17.897,2.903l25.642,2.635l23.223,0.967
		c0,0,12.402-0.546,18.381-0.967c5.98-0.422,34.863-2.381,34.863-2.381l50.284,2.381l14.028,1.45l3.871,7.979l-1.82,17.748
		l-2.082,11.248l-13.997,0.76l-23.221,1.452l-24.192-3.871c0,0-27.09,0.968-33.862,0c-6.775-0.969-46.444-3.871-46.444-3.871
		l-39.668-3.386l-41.607-7.739l-7.257-4.355l-4.354-32.898"/>
</g>
<g opacity="0.91">
	<pattern  id="SVGID_12_" xlink:href="#Mezzotint_1" patternTransform="matrix(1 0 0 1 -90.4092 -48.8809)"  opacity="0.91">
	</pattern>
	<polygon fill="url(#SVGID_12_)" points="33.32,522.296 41.184,512.844 63.463,514.605 76.924,515.073 96.098,515.613 
		108.342,516.83 125.303,519.879 127.656,537.293 127.303,549.841 119.496,556.646 112.24,556.646 98.694,558.581 80.312,558.581 
		67.25,558.581 55.639,558.581 42.092,558.581 38.223,554.71 32.32,541.646 	"/>
</g>
<g opacity="0.9">
	<pattern  id="SVGID_13_" xlink:href="#Mezzotint_1" patternTransform="matrix(1 0 0 1 -90.4092 -48.8809)"  opacity="0.9">
	</pattern>
	<polyline fill="url(#SVGID_13_)" points="368.293,514.977 372.164,512.106 393.21,514.977 404.094,513.524 419.09,513.524 
		440.861,514.977 452.471,517.88 452.471,517.88 462.417,534.327 460.639,549.082 453.439,564.321 453.439,564.321 436.989,564.321 
		412.803,562.869 390.547,559.485 376.969,556.583 369.164,552.744 365.391,542.069 366.843,514.977 	"/>
</g>
<g opacity="0.9">
	<pattern  id="SVGID_14_" xlink:href="#Mezzotint_1" patternTransform="matrix(1 0 0 1 -90.4092 -48.8809)"  opacity="0.9">
	</pattern>
	<path fill="url(#SVGID_14_)" d="M134.579,532.459l12.896,4.655l10.312,2.869l21.304,1.451l17.897,2.903l25.642,2.635l23.223,0.967
		c0,0,12.402-0.546,18.381-0.967c5.98-0.422,34.863-2.381,34.863-2.381l50.284,2.381l14.028,1.45l3.871,7.979l-1.82,17.748
		l-5.082,10.248l-10.997,1.76l-23.221,1.452l-24.192-3.871c0,0-27.09,0.968-33.862,0c-6.775-0.969-46.444-3.871-46.444-3.871
		l-39.668-3.386l-41.607-7.739l-7.257-4.355l-4.354-32.898"/>
</g>
<pattern  id="SVGID_15_" xlink:href="#Capsules" patternTransform="matrix(1 0 0 1 -75.0303 -44.043)">
</pattern>
<path opacity="0.09" fill="url(#SVGID_15_)" d="M125.84,107.707l5.805-5.806l10.645-9.676l18.383-8.708l8.708-1.837l16.45-8.805
	c0,0-0.535-5.069,0,0c0.896,8.484,7.33,20.752,9.412,25.748c1.368,3.282,14.084,10.428,27.419,13.754
	c13.334,3.326,28.287,1.831,36.13,1.831c13.917,0,30.784,0,44.477-8.676c7.959-5.043,7.959-5.043,15.513-10.676l14.795-14.565
	l7.458-10.423l0.573-9.571l4.838,1.451l17.416,5.322l19.352,8.224l24.189,13.062l6.773,8.708l4.837,10.644l9.677,41.122
	l4.354,23.222l2.902,15.965l4.354,24.188l2.903,13.547l4.354,22.254l2.902,16.448l7.257,45.476l2.902,45.476l1.935,18.384v18.384
	l-1.548,22.254l1.237,46.443l-1.721,19.351l-1.937,11.61l-1.936,8.709l-1.934,5.806l-1.937,10.642l-2.806,0.968l-10.642,2h-13.546
	l-9.677-1l-10.642-1l-14.515-0.968l-10.644,1.452h-6.771l-5.806,2.419l6.803,5.275l-4.868,6.335l0.48,8.308l4.388,10.525
	l-5.352,7.775l-0.484,3.387l-15.48-5.806l-5.806-0.967l-16.449,1.934l-19.352-3.869l-16.071,0.967l-27.469,1.936l-18.383,0.967
	l-14.513-0.967h-19.354l-19.352,0.967l-22.252-5.806l-17.416-0.967l-18.386-8.708l-8.708-3.87l-1.451-13.062l-5.32-2.42
	l-13.547-3.869l-13.545-0.969H80.363l-17.416,0.969l-11.611,0.967l-4.836,2.902l-4.871-6.771l1-15.481l-1-20.319V456.03v-18.382
	l2.354-31.931l3.451-18.384l3.839-21.287l4.903-14.514l1.936-12.577l1.934-14.797l2.902-13.264l3.872-12.577l3.869-14.514
	l2.419-11.611l4.289-19.352l0.967-8.708l4.354-17.416l3.422-19.835l4.385-13.062l4.838-12.579L99.2,170.6l5.19-18.385l4.387-9.676
	l7.354-13.546L125.84,107.707z"/>
<g>
	<g>
		<path fill="#F8A58A" d="M229.504,62.303l30.393,2.382l11.406-1.008l12.215-3.088l6.61,1.326l0.78,11.384l-0.032,3.321
			l-6.976,1.023l-8.547,2.166l-11.295,0.157l-7.464-1.156c0,0-4.723,0.639-8.135,0.169c-3.416-0.465-13.557,0.514-13.557,0.514
			l-6.194-1.2l-0.434-7.782l-0.021-5.926L229.504,62.303z"/>
		<g>
			<path d="M229.193,62.821c5.725,0.448,11.449,0.897,17.174,1.346c4.625,0.362,9.633,1.366,14.274,0.956
				c5.688-0.502,10.896-1.003,16.413-2.398c2.544-0.643,5.69-1.701,7.171-1.404c1.609,0.323,3.219,0.646,4.828,0.968
				c0.527,0.106,0.365,1.63,0.446,2.8c0.195,2.857,0.598,5.78,0.57,8.645c-0.009,0.877-0.017,1.754-0.025,2.63
				c0.002-0.229,1.463-0.334-0.343-0.069c-1.847,0.271-3.693,0.542-5.54,0.812c-2.432,0.357-4.859,1.2-7.24,1.803
				c-2.396,0.607-5.372,0.438-8.385,0.48c-2.707,0.038-5.038-0.078-7.712-0.492c-3.386-0.524-5.877-0.313-9.344-0.266
				c-7.026,0.097-14.317,0.712-20.937-0.57c-1.517-0.294-1.021-0.28-1.117-2.01c-0.097-1.729-0.193-3.459-0.289-5.188
				c-0.174-3.106-0.353-5.78,1.146-8.517c0.408-0.746-1.271-0.623-1.562-0.09c-2.533,4.627-1.131,11.108-0.845,16.257
				c0.008,0.141,0.222,0.245,0.333,0.267c11.533,2.233,23.268-0.199,34.797,1.587c9.445,1.463,18.564-1.888,27.769-3.237
				c0.273-0.04,0.931-0.221,0.935-0.602c0.048-4.961-0.413-9.889-0.752-14.838c-0.01-0.142-0.22-0.244-0.333-0.267
				c-2.203-0.442-4.406-0.884-6.61-1.326c-1.769-0.354-4.575,1.019-6.25,1.442c-5.738,1.451-10.982,2.031-16.925,2.556
				c-4.501,0.398-10.122-0.675-14.84-1.044c-5.396-0.423-10.791-0.846-16.187-1.269C229.117,61.73,228.067,62.733,229.193,62.821z"
				/>
		</g>
	</g>
</g>
<polyline fill="none" points="234.707,71.98 235.443,73.038 237.217,78.123 259.34,75.94 268.023,78.96 278.947,77.25 
	314.781,71.805 "/>
<text transform="matrix(0.9952 -0.0982 0.0982 0.9952 239.3574 77.9736)" font-family="'Verdana-Bold'" font-size="15">P</text>
<text transform="matrix(0.9996 -0.0293 0.0293 0.9996 250.2935 76.5234)" font-family="'Verdana-Bold'" font-size="15">h</text>
<text transform="matrix(0.9862 0.1653 -0.1653 0.9862 260.3691 77.0996)" font-family="'Verdana-Bold'" font-size="15">E</text>
<text transform="matrix(0.9926 -0.1215 0.1215 0.9926 272.3477 78.3203)" font-family="'Verdana-Bold'" font-size="2"> </text>
<text transform="matrix(0.9883 -0.1528 0.1528 0.9883 273.2734 78.1904)" font-family="'Verdana-Bold'" font-size="15">T</text>
<pattern  id="SVGID_16_" xlink:href="#Diagonal_Lines" patternTransform="matrix(1 0 0 1 -89.0068 -47.4639)">
</pattern>
<path opacity="0.5" fill="url(#SVGID_16_)" d="M124.409,104.794l5.805-5.806l10.645-9.676l18.383-8.708l8.708-1.837l16.45-8.805
	c0,0-0.535-5.069,0,0c0.896,8.484,7.385,21.132,11.412,24.748c2.87,2.577,12.084,9.428,25.419,12.754
	c13.334,3.326,28.287,1.831,36.13,1.831c13.917,0,26.784,2,40.477-6.676c7.959-5.043,11.959-5.043,19.513-10.676l14.795-14.565
	l6.458-10.423l1.573-9.571l4.838,1.451l17.416,5.322l19.352,8.224l24.189,13.062l6.773,8.708l4.837,10.644l9.677,41.122
	l4.354,23.222l2.902,15.965l4.354,24.188l2.903,13.547l4.354,22.254l2.902,16.448l7.257,45.476l2.902,45.475l1.935,18.385v18.383
	l1.452,22.254l-0.763,46.443l-2.721,19.352l-0.937,11.609l-1.936,8.709l-1.934,5.807l-0.937,10.641l-4.806,0.969l-10.642,2h-13.546
	l-9.677-1l-10.642-1l-14.515-0.969l-10.644,1.453h-6.771l-5.806,2.418l6.803,5.275l-4.868,6.336l0.48,8.307l4.388,10.525
	l-5.352,7.775l-0.484,3.387l-15.48-5.805l-5.806-0.967l-16.449,1.934l-19.352-3.869l-16.071,0.967l-27.469,1.936l-18.383,0.967
	l-14.513-0.967h-19.354l-19.352,0.967l-22.252-5.807l-17.416-0.967l-18.386-8.707l-8.708-3.871l-1.451-13.061l-5.32-2.42
	l-13.547-3.869l-13.545-0.969H78.933l-17.416,0.969l-11.611,0.967l-4.836,2.902l-1.871-6.771l-1-15.482l1-20.318v-24.189v-18.383
	l1.354-31.93l1.451-18.385l3.839-21.287l4.903-14.514l1.936-12.576l1.934-14.797l2.902-13.264l3.872-12.578l3.869-14.514
	l2.419-11.611l4.289-19.352l0.967-8.708l4.354-17.416l3.422-19.835l4.385-13.062l4.838-12.579l3.839-10.643l5.19-18.385l4.387-9.676
	l7.354-13.546L124.409,104.794z"/>
</svg>
